<?xml version="1.0" encoding="utf-8" standalone="no"?>
<!DOCTYPE svg PUBLIC "-//W3C//DTD SVG 1.1//EN"
  "http://www.w3.org/Graphics/SVG/1.1/DTD/svg11.dtd">
<svg xmlns:xlink="http://www.w3.org/1999/xlink" width="460.8pt" height="345.6pt" viewBox="0 0 460.8 345.6" xmlns="http://www.w3.org/2000/svg" version="1.1">
 <metadata>
  <rdf:RDF xmlns:dc="http://purl.org/dc/elements/1.1/" xmlns:cc="http://creativecommons.org/ns#" xmlns:rdf="http://www.w3.org/1999/02/22-rdf-syntax-ns#">
   <cc:Work>
    <dc:type rdf:resource="http://purl.org/dc/dcmitype/StillImage"/>
    <dc:date>2023-08-08T10:26:55.856889</dc:date>
    <dc:format>image/svg+xml</dc:format>
    <dc:creator>
     <cc:Agent>
      <dc:title>Matplotlib v3.7.1, https://matplotlib.org/</dc:title>
     </cc:Agent>
    </dc:creator>
   </cc:Work>
  </rdf:RDF>
 </metadata>
 <defs>
  <style type="text/css">*{stroke-linejoin: round; stroke-linecap: butt}</style>
 </defs>
 <g id="figure_1">
  <g id="patch_1">
   <path d="M 0 345.6 
L 460.8 345.6 
L 460.8 0 
L 0 0 
z
" style="fill: #ffffff"/>
  </g>
  <g id="axes_1">
   <g id="patch_2">
    <path d="M 57.6 307.584 
L 414.72 307.584 
L 414.72 41.472 
L 57.6 41.472 
z
" style="fill: #ffffff"/>
   </g>
   <g id="matplotlib.axis_1">
    <g id="xtick_1">
     <g id="line2d_1">
      <defs>
       <path id="m798314b7e9" d="M 0 0 
L 0 3.5 
" style="stroke: #000000; stroke-width: 0.8"/>
      </defs>
      <g>
       <use xlink:href="#m798314b7e9" x="73.832727" y="307.584" style="stroke: #000000; stroke-width: 0.8"/>
      </g>
     </g>
     <g id="text_1">
      <!-- 0.0 -->
      <g transform="translate(65.881165 322.182437) scale(0.1 -0.1)">
       <defs>
        <path id="DejaVuSans-30" d="M 2034 4250 
Q 1547 4250 1301 3770 
Q 1056 3291 1056 2328 
Q 1056 1369 1301 889 
Q 1547 409 2034 409 
Q 2525 409 2770 889 
Q 3016 1369 3016 2328 
Q 3016 3291 2770 3770 
Q 2525 4250 2034 4250 
z
M 2034 4750 
Q 2819 4750 3233 4129 
Q 3647 3509 3647 2328 
Q 3647 1150 3233 529 
Q 2819 -91 2034 -91 
Q 1250 -91 836 529 
Q 422 1150 422 2328 
Q 422 3509 836 4129 
Q 1250 4750 2034 4750 
z
" transform="scale(0.015625)"/>
        <path id="DejaVuSans-2e" d="M 684 794 
L 1344 794 
L 1344 0 
L 684 0 
L 684 794 
z
" transform="scale(0.015625)"/>
       </defs>
       <use xlink:href="#DejaVuSans-30"/>
       <use xlink:href="#DejaVuSans-2e" x="63.623047"/>
       <use xlink:href="#DejaVuSans-30" x="95.410156"/>
      </g>
     </g>
    </g>
    <g id="xtick_2">
     <g id="line2d_2">
      <g>
       <use xlink:href="#m798314b7e9" x="114.414545" y="307.584" style="stroke: #000000; stroke-width: 0.8"/>
      </g>
     </g>
     <g id="text_2">
      <!-- 2.5 -->
      <g transform="translate(106.462983 322.182437) scale(0.1 -0.1)">
       <defs>
        <path id="DejaVuSans-32" d="M 1228 531 
L 3431 531 
L 3431 0 
L 469 0 
L 469 531 
Q 828 903 1448 1529 
Q 2069 2156 2228 2338 
Q 2531 2678 2651 2914 
Q 2772 3150 2772 3378 
Q 2772 3750 2511 3984 
Q 2250 4219 1831 4219 
Q 1534 4219 1204 4116 
Q 875 4013 500 3803 
L 500 4441 
Q 881 4594 1212 4672 
Q 1544 4750 1819 4750 
Q 2544 4750 2975 4387 
Q 3406 4025 3406 3419 
Q 3406 3131 3298 2873 
Q 3191 2616 2906 2266 
Q 2828 2175 2409 1742 
Q 1991 1309 1228 531 
z
" transform="scale(0.015625)"/>
        <path id="DejaVuSans-35" d="M 691 4666 
L 3169 4666 
L 3169 4134 
L 1269 4134 
L 1269 2991 
Q 1406 3038 1543 3061 
Q 1681 3084 1819 3084 
Q 2600 3084 3056 2656 
Q 3513 2228 3513 1497 
Q 3513 744 3044 326 
Q 2575 -91 1722 -91 
Q 1428 -91 1123 -41 
Q 819 9 494 109 
L 494 744 
Q 775 591 1075 516 
Q 1375 441 1709 441 
Q 2250 441 2565 725 
Q 2881 1009 2881 1497 
Q 2881 1984 2565 2268 
Q 2250 2553 1709 2553 
Q 1456 2553 1204 2497 
Q 953 2441 691 2322 
L 691 4666 
z
" transform="scale(0.015625)"/>
       </defs>
       <use xlink:href="#DejaVuSans-32"/>
       <use xlink:href="#DejaVuSans-2e" x="63.623047"/>
       <use xlink:href="#DejaVuSans-35" x="95.410156"/>
      </g>
     </g>
    </g>
    <g id="xtick_3">
     <g id="line2d_3">
      <g>
       <use xlink:href="#m798314b7e9" x="154.996364" y="307.584" style="stroke: #000000; stroke-width: 0.8"/>
      </g>
     </g>
     <g id="text_3">
      <!-- 5.0 -->
      <g transform="translate(147.044801 322.182437) scale(0.1 -0.1)">
       <use xlink:href="#DejaVuSans-35"/>
       <use xlink:href="#DejaVuSans-2e" x="63.623047"/>
       <use xlink:href="#DejaVuSans-30" x="95.410156"/>
      </g>
     </g>
    </g>
    <g id="xtick_4">
     <g id="line2d_4">
      <g>
       <use xlink:href="#m798314b7e9" x="195.578182" y="307.584" style="stroke: #000000; stroke-width: 0.8"/>
      </g>
     </g>
     <g id="text_4">
      <!-- 7.5 -->
      <g transform="translate(187.626619 322.182437) scale(0.1 -0.1)">
       <defs>
        <path id="DejaVuSans-37" d="M 525 4666 
L 3525 4666 
L 3525 4397 
L 1831 0 
L 1172 0 
L 2766 4134 
L 525 4134 
L 525 4666 
z
" transform="scale(0.015625)"/>
       </defs>
       <use xlink:href="#DejaVuSans-37"/>
       <use xlink:href="#DejaVuSans-2e" x="63.623047"/>
       <use xlink:href="#DejaVuSans-35" x="95.410156"/>
      </g>
     </g>
    </g>
    <g id="xtick_5">
     <g id="line2d_5">
      <g>
       <use xlink:href="#m798314b7e9" x="236.16" y="307.584" style="stroke: #000000; stroke-width: 0.8"/>
      </g>
     </g>
     <g id="text_5">
      <!-- 10.0 -->
      <g transform="translate(225.027188 322.182437) scale(0.1 -0.1)">
       <defs>
        <path id="DejaVuSans-31" d="M 794 531 
L 1825 531 
L 1825 4091 
L 703 3866 
L 703 4441 
L 1819 4666 
L 2450 4666 
L 2450 531 
L 3481 531 
L 3481 0 
L 794 0 
L 794 531 
z
" transform="scale(0.015625)"/>
       </defs>
       <use xlink:href="#DejaVuSans-31"/>
       <use xlink:href="#DejaVuSans-30" x="63.623047"/>
       <use xlink:href="#DejaVuSans-2e" x="127.246094"/>
       <use xlink:href="#DejaVuSans-30" x="159.033203"/>
      </g>
     </g>
    </g>
    <g id="xtick_6">
     <g id="line2d_6">
      <g>
       <use xlink:href="#m798314b7e9" x="276.741818" y="307.584" style="stroke: #000000; stroke-width: 0.8"/>
      </g>
     </g>
     <g id="text_6">
      <!-- 12.5 -->
      <g transform="translate(265.609006 322.182437) scale(0.1 -0.1)">
       <use xlink:href="#DejaVuSans-31"/>
       <use xlink:href="#DejaVuSans-32" x="63.623047"/>
       <use xlink:href="#DejaVuSans-2e" x="127.246094"/>
       <use xlink:href="#DejaVuSans-35" x="159.033203"/>
      </g>
     </g>
    </g>
    <g id="xtick_7">
     <g id="line2d_7">
      <g>
       <use xlink:href="#m798314b7e9" x="317.323636" y="307.584" style="stroke: #000000; stroke-width: 0.8"/>
      </g>
     </g>
     <g id="text_7">
      <!-- 15.0 -->
      <g transform="translate(306.190824 322.182437) scale(0.1 -0.1)">
       <use xlink:href="#DejaVuSans-31"/>
       <use xlink:href="#DejaVuSans-35" x="63.623047"/>
       <use xlink:href="#DejaVuSans-2e" x="127.246094"/>
       <use xlink:href="#DejaVuSans-30" x="159.033203"/>
      </g>
     </g>
    </g>
    <g id="xtick_8">
     <g id="line2d_8">
      <g>
       <use xlink:href="#m798314b7e9" x="357.905455" y="307.584" style="stroke: #000000; stroke-width: 0.8"/>
      </g>
     </g>
     <g id="text_8">
      <!-- 17.5 -->
      <g transform="translate(346.772642 322.182437) scale(0.1 -0.1)">
       <use xlink:href="#DejaVuSans-31"/>
       <use xlink:href="#DejaVuSans-37" x="63.623047"/>
       <use xlink:href="#DejaVuSans-2e" x="127.246094"/>
       <use xlink:href="#DejaVuSans-35" x="159.033203"/>
      </g>
     </g>
    </g>
    <g id="xtick_9">
     <g id="line2d_9">
      <g>
       <use xlink:href="#m798314b7e9" x="398.487273" y="307.584" style="stroke: #000000; stroke-width: 0.8"/>
      </g>
     </g>
     <g id="text_9">
      <!-- 20.0 -->
      <g transform="translate(387.35446 322.182437) scale(0.1 -0.1)">
       <use xlink:href="#DejaVuSans-32"/>
       <use xlink:href="#DejaVuSans-30" x="63.623047"/>
       <use xlink:href="#DejaVuSans-2e" x="127.246094"/>
       <use xlink:href="#DejaVuSans-30" x="159.033203"/>
      </g>
     </g>
    </g>
    <g id="text_10">
     <!-- Time (minutes) -->
     <g transform="translate(198.1975 335.860562) scale(0.1 -0.1)">
      <defs>
       <path id="DejaVuSans-54" d="M -19 4666 
L 3928 4666 
L 3928 4134 
L 2272 4134 
L 2272 0 
L 1638 0 
L 1638 4134 
L -19 4134 
L -19 4666 
z
" transform="scale(0.015625)"/>
       <path id="DejaVuSans-69" d="M 603 3500 
L 1178 3500 
L 1178 0 
L 603 0 
L 603 3500 
z
M 603 4863 
L 1178 4863 
L 1178 4134 
L 603 4134 
L 603 4863 
z
" transform="scale(0.015625)"/>
       <path id="DejaVuSans-6d" d="M 3328 2828 
Q 3544 3216 3844 3400 
Q 4144 3584 4550 3584 
Q 5097 3584 5394 3201 
Q 5691 2819 5691 2113 
L 5691 0 
L 5113 0 
L 5113 2094 
Q 5113 2597 4934 2840 
Q 4756 3084 4391 3084 
Q 3944 3084 3684 2787 
Q 3425 2491 3425 1978 
L 3425 0 
L 2847 0 
L 2847 2094 
Q 2847 2600 2669 2842 
Q 2491 3084 2119 3084 
Q 1678 3084 1418 2786 
Q 1159 2488 1159 1978 
L 1159 0 
L 581 0 
L 581 3500 
L 1159 3500 
L 1159 2956 
Q 1356 3278 1631 3431 
Q 1906 3584 2284 3584 
Q 2666 3584 2933 3390 
Q 3200 3197 3328 2828 
z
" transform="scale(0.015625)"/>
       <path id="DejaVuSans-65" d="M 3597 1894 
L 3597 1613 
L 953 1613 
Q 991 1019 1311 708 
Q 1631 397 2203 397 
Q 2534 397 2845 478 
Q 3156 559 3463 722 
L 3463 178 
Q 3153 47 2828 -22 
Q 2503 -91 2169 -91 
Q 1331 -91 842 396 
Q 353 884 353 1716 
Q 353 2575 817 3079 
Q 1281 3584 2069 3584 
Q 2775 3584 3186 3129 
Q 3597 2675 3597 1894 
z
M 3022 2063 
Q 3016 2534 2758 2815 
Q 2500 3097 2075 3097 
Q 1594 3097 1305 2825 
Q 1016 2553 972 2059 
L 3022 2063 
z
" transform="scale(0.015625)"/>
       <path id="DejaVuSans-20" transform="scale(0.015625)"/>
       <path id="DejaVuSans-28" d="M 1984 4856 
Q 1566 4138 1362 3434 
Q 1159 2731 1159 2009 
Q 1159 1288 1364 580 
Q 1569 -128 1984 -844 
L 1484 -844 
Q 1016 -109 783 600 
Q 550 1309 550 2009 
Q 550 2706 781 3412 
Q 1013 4119 1484 4856 
L 1984 4856 
z
" transform="scale(0.015625)"/>
       <path id="DejaVuSans-6e" d="M 3513 2113 
L 3513 0 
L 2938 0 
L 2938 2094 
Q 2938 2591 2744 2837 
Q 2550 3084 2163 3084 
Q 1697 3084 1428 2787 
Q 1159 2491 1159 1978 
L 1159 0 
L 581 0 
L 581 3500 
L 1159 3500 
L 1159 2956 
Q 1366 3272 1645 3428 
Q 1925 3584 2291 3584 
Q 2894 3584 3203 3211 
Q 3513 2838 3513 2113 
z
" transform="scale(0.015625)"/>
       <path id="DejaVuSans-75" d="M 544 1381 
L 544 3500 
L 1119 3500 
L 1119 1403 
Q 1119 906 1312 657 
Q 1506 409 1894 409 
Q 2359 409 2629 706 
Q 2900 1003 2900 1516 
L 2900 3500 
L 3475 3500 
L 3475 0 
L 2900 0 
L 2900 538 
Q 2691 219 2414 64 
Q 2138 -91 1772 -91 
Q 1169 -91 856 284 
Q 544 659 544 1381 
z
M 1991 3584 
L 1991 3584 
z
" transform="scale(0.015625)"/>
       <path id="DejaVuSans-74" d="M 1172 4494 
L 1172 3500 
L 2356 3500 
L 2356 3053 
L 1172 3053 
L 1172 1153 
Q 1172 725 1289 603 
Q 1406 481 1766 481 
L 2356 481 
L 2356 0 
L 1766 0 
Q 1100 0 847 248 
Q 594 497 594 1153 
L 594 3053 
L 172 3053 
L 172 3500 
L 594 3500 
L 594 4494 
L 1172 4494 
z
" transform="scale(0.015625)"/>
       <path id="DejaVuSans-73" d="M 2834 3397 
L 2834 2853 
Q 2591 2978 2328 3040 
Q 2066 3103 1784 3103 
Q 1356 3103 1142 2972 
Q 928 2841 928 2578 
Q 928 2378 1081 2264 
Q 1234 2150 1697 2047 
L 1894 2003 
Q 2506 1872 2764 1633 
Q 3022 1394 3022 966 
Q 3022 478 2636 193 
Q 2250 -91 1575 -91 
Q 1294 -91 989 -36 
Q 684 19 347 128 
L 347 722 
Q 666 556 975 473 
Q 1284 391 1588 391 
Q 1994 391 2212 530 
Q 2431 669 2431 922 
Q 2431 1156 2273 1281 
Q 2116 1406 1581 1522 
L 1381 1569 
Q 847 1681 609 1914 
Q 372 2147 372 2553 
Q 372 3047 722 3315 
Q 1072 3584 1716 3584 
Q 2034 3584 2315 3537 
Q 2597 3491 2834 3397 
z
" transform="scale(0.015625)"/>
       <path id="DejaVuSans-29" d="M 513 4856 
L 1013 4856 
Q 1481 4119 1714 3412 
Q 1947 2706 1947 2009 
Q 1947 1309 1714 600 
Q 1481 -109 1013 -844 
L 513 -844 
Q 928 -128 1133 580 
Q 1338 1288 1338 2009 
Q 1338 2731 1133 3434 
Q 928 4138 513 4856 
z
" transform="scale(0.015625)"/>
      </defs>
      <use xlink:href="#DejaVuSans-54"/>
      <use xlink:href="#DejaVuSans-69" x="57.958984"/>
      <use xlink:href="#DejaVuSans-6d" x="85.742188"/>
      <use xlink:href="#DejaVuSans-65" x="183.154297"/>
      <use xlink:href="#DejaVuSans-20" x="244.677734"/>
      <use xlink:href="#DejaVuSans-28" x="276.464844"/>
      <use xlink:href="#DejaVuSans-6d" x="315.478516"/>
      <use xlink:href="#DejaVuSans-69" x="412.890625"/>
      <use xlink:href="#DejaVuSans-6e" x="440.673828"/>
      <use xlink:href="#DejaVuSans-75" x="504.052734"/>
      <use xlink:href="#DejaVuSans-74" x="567.431641"/>
      <use xlink:href="#DejaVuSans-65" x="606.640625"/>
      <use xlink:href="#DejaVuSans-73" x="668.164062"/>
      <use xlink:href="#DejaVuSans-29" x="720.263672"/>
     </g>
    </g>
   </g>
   <g id="matplotlib.axis_2">
    <g id="ytick_1">
     <g id="line2d_10">
      <defs>
       <path id="mdaf03a384e" d="M 0 0 
L -3.5 0 
" style="stroke: #000000; stroke-width: 0.8"/>
      </defs>
      <g>
       <use xlink:href="#mdaf03a384e" x="57.6" y="295.488" style="stroke: #000000; stroke-width: 0.8"/>
      </g>
     </g>
     <g id="text_11">
      <!-- 0 -->
      <g transform="translate(44.2375 299.287219) scale(0.1 -0.1)">
       <use xlink:href="#DejaVuSans-30"/>
      </g>
     </g>
    </g>
    <g id="ytick_2">
     <g id="line2d_11">
      <g>
       <use xlink:href="#mdaf03a384e" x="57.6" y="238.826964" style="stroke: #000000; stroke-width: 0.8"/>
      </g>
     </g>
     <g id="text_12">
      <!-- 200 -->
      <g transform="translate(31.5125 242.626182) scale(0.1 -0.1)">
       <use xlink:href="#DejaVuSans-32"/>
       <use xlink:href="#DejaVuSans-30" x="63.623047"/>
       <use xlink:href="#DejaVuSans-30" x="127.246094"/>
      </g>
     </g>
    </g>
    <g id="ytick_3">
     <g id="line2d_12">
      <g>
       <use xlink:href="#mdaf03a384e" x="57.6" y="182.165927" style="stroke: #000000; stroke-width: 0.8"/>
      </g>
     </g>
     <g id="text_13">
      <!-- 400 -->
      <g transform="translate(31.5125 185.965146) scale(0.1 -0.1)">
       <defs>
        <path id="DejaVuSans-34" d="M 2419 4116 
L 825 1625 
L 2419 1625 
L 2419 4116 
z
M 2253 4666 
L 3047 4666 
L 3047 1625 
L 3713 1625 
L 3713 1100 
L 3047 1100 
L 3047 0 
L 2419 0 
L 2419 1100 
L 313 1100 
L 313 1709 
L 2253 4666 
z
" transform="scale(0.015625)"/>
       </defs>
       <use xlink:href="#DejaVuSans-34"/>
       <use xlink:href="#DejaVuSans-30" x="63.623047"/>
       <use xlink:href="#DejaVuSans-30" x="127.246094"/>
      </g>
     </g>
    </g>
    <g id="ytick_4">
     <g id="line2d_13">
      <g>
       <use xlink:href="#mdaf03a384e" x="57.6" y="125.504891" style="stroke: #000000; stroke-width: 0.8"/>
      </g>
     </g>
     <g id="text_14">
      <!-- 600 -->
      <g transform="translate(31.5125 129.30411) scale(0.1 -0.1)">
       <defs>
        <path id="DejaVuSans-36" d="M 2113 2584 
Q 1688 2584 1439 2293 
Q 1191 2003 1191 1497 
Q 1191 994 1439 701 
Q 1688 409 2113 409 
Q 2538 409 2786 701 
Q 3034 994 3034 1497 
Q 3034 2003 2786 2293 
Q 2538 2584 2113 2584 
z
M 3366 4563 
L 3366 3988 
Q 3128 4100 2886 4159 
Q 2644 4219 2406 4219 
Q 1781 4219 1451 3797 
Q 1122 3375 1075 2522 
Q 1259 2794 1537 2939 
Q 1816 3084 2150 3084 
Q 2853 3084 3261 2657 
Q 3669 2231 3669 1497 
Q 3669 778 3244 343 
Q 2819 -91 2113 -91 
Q 1303 -91 875 529 
Q 447 1150 447 2328 
Q 447 3434 972 4092 
Q 1497 4750 2381 4750 
Q 2619 4750 2861 4703 
Q 3103 4656 3366 4563 
z
" transform="scale(0.015625)"/>
       </defs>
       <use xlink:href="#DejaVuSans-36"/>
       <use xlink:href="#DejaVuSans-30" x="63.623047"/>
       <use xlink:href="#DejaVuSans-30" x="127.246094"/>
      </g>
     </g>
    </g>
    <g id="ytick_5">
     <g id="line2d_14">
      <g>
       <use xlink:href="#mdaf03a384e" x="57.6" y="68.843855" style="stroke: #000000; stroke-width: 0.8"/>
      </g>
     </g>
     <g id="text_15">
      <!-- 800 -->
      <g transform="translate(31.5125 72.643073) scale(0.1 -0.1)">
       <defs>
        <path id="DejaVuSans-38" d="M 2034 2216 
Q 1584 2216 1326 1975 
Q 1069 1734 1069 1313 
Q 1069 891 1326 650 
Q 1584 409 2034 409 
Q 2484 409 2743 651 
Q 3003 894 3003 1313 
Q 3003 1734 2745 1975 
Q 2488 2216 2034 2216 
z
M 1403 2484 
Q 997 2584 770 2862 
Q 544 3141 544 3541 
Q 544 4100 942 4425 
Q 1341 4750 2034 4750 
Q 2731 4750 3128 4425 
Q 3525 4100 3525 3541 
Q 3525 3141 3298 2862 
Q 3072 2584 2669 2484 
Q 3125 2378 3379 2068 
Q 3634 1759 3634 1313 
Q 3634 634 3220 271 
Q 2806 -91 2034 -91 
Q 1263 -91 848 271 
Q 434 634 434 1313 
Q 434 1759 690 2068 
Q 947 2378 1403 2484 
z
M 1172 3481 
Q 1172 3119 1398 2916 
Q 1625 2713 2034 2713 
Q 2441 2713 2670 2916 
Q 2900 3119 2900 3481 
Q 2900 3844 2670 4047 
Q 2441 4250 2034 4250 
Q 1625 4250 1398 4047 
Q 1172 3844 1172 3481 
z
" transform="scale(0.015625)"/>
       </defs>
       <use xlink:href="#DejaVuSans-38"/>
       <use xlink:href="#DejaVuSans-30" x="63.623047"/>
       <use xlink:href="#DejaVuSans-30" x="127.246094"/>
      </g>
     </g>
    </g>
    <g id="text_16">
     <!-- Training episode return -->
     <g transform="translate(25.432812 232.27175) rotate(-90) scale(0.1 -0.1)">
      <defs>
       <path id="DejaVuSans-72" d="M 2631 2963 
Q 2534 3019 2420 3045 
Q 2306 3072 2169 3072 
Q 1681 3072 1420 2755 
Q 1159 2438 1159 1844 
L 1159 0 
L 581 0 
L 581 3500 
L 1159 3500 
L 1159 2956 
Q 1341 3275 1631 3429 
Q 1922 3584 2338 3584 
Q 2397 3584 2469 3576 
Q 2541 3569 2628 3553 
L 2631 2963 
z
" transform="scale(0.015625)"/>
       <path id="DejaVuSans-61" d="M 2194 1759 
Q 1497 1759 1228 1600 
Q 959 1441 959 1056 
Q 959 750 1161 570 
Q 1363 391 1709 391 
Q 2188 391 2477 730 
Q 2766 1069 2766 1631 
L 2766 1759 
L 2194 1759 
z
M 3341 1997 
L 3341 0 
L 2766 0 
L 2766 531 
Q 2569 213 2275 61 
Q 1981 -91 1556 -91 
Q 1019 -91 701 211 
Q 384 513 384 1019 
Q 384 1609 779 1909 
Q 1175 2209 1959 2209 
L 2766 2209 
L 2766 2266 
Q 2766 2663 2505 2880 
Q 2244 3097 1772 3097 
Q 1472 3097 1187 3025 
Q 903 2953 641 2809 
L 641 3341 
Q 956 3463 1253 3523 
Q 1550 3584 1831 3584 
Q 2591 3584 2966 3190 
Q 3341 2797 3341 1997 
z
" transform="scale(0.015625)"/>
       <path id="DejaVuSans-67" d="M 2906 1791 
Q 2906 2416 2648 2759 
Q 2391 3103 1925 3103 
Q 1463 3103 1205 2759 
Q 947 2416 947 1791 
Q 947 1169 1205 825 
Q 1463 481 1925 481 
Q 2391 481 2648 825 
Q 2906 1169 2906 1791 
z
M 3481 434 
Q 3481 -459 3084 -895 
Q 2688 -1331 1869 -1331 
Q 1566 -1331 1297 -1286 
Q 1028 -1241 775 -1147 
L 775 -588 
Q 1028 -725 1275 -790 
Q 1522 -856 1778 -856 
Q 2344 -856 2625 -561 
Q 2906 -266 2906 331 
L 2906 616 
Q 2728 306 2450 153 
Q 2172 0 1784 0 
Q 1141 0 747 490 
Q 353 981 353 1791 
Q 353 2603 747 3093 
Q 1141 3584 1784 3584 
Q 2172 3584 2450 3431 
Q 2728 3278 2906 2969 
L 2906 3500 
L 3481 3500 
L 3481 434 
z
" transform="scale(0.015625)"/>
       <path id="DejaVuSans-70" d="M 1159 525 
L 1159 -1331 
L 581 -1331 
L 581 3500 
L 1159 3500 
L 1159 2969 
Q 1341 3281 1617 3432 
Q 1894 3584 2278 3584 
Q 2916 3584 3314 3078 
Q 3713 2572 3713 1747 
Q 3713 922 3314 415 
Q 2916 -91 2278 -91 
Q 1894 -91 1617 61 
Q 1341 213 1159 525 
z
M 3116 1747 
Q 3116 2381 2855 2742 
Q 2594 3103 2138 3103 
Q 1681 3103 1420 2742 
Q 1159 2381 1159 1747 
Q 1159 1113 1420 752 
Q 1681 391 2138 391 
Q 2594 391 2855 752 
Q 3116 1113 3116 1747 
z
" transform="scale(0.015625)"/>
       <path id="DejaVuSans-6f" d="M 1959 3097 
Q 1497 3097 1228 2736 
Q 959 2375 959 1747 
Q 959 1119 1226 758 
Q 1494 397 1959 397 
Q 2419 397 2687 759 
Q 2956 1122 2956 1747 
Q 2956 2369 2687 2733 
Q 2419 3097 1959 3097 
z
M 1959 3584 
Q 2709 3584 3137 3096 
Q 3566 2609 3566 1747 
Q 3566 888 3137 398 
Q 2709 -91 1959 -91 
Q 1206 -91 779 398 
Q 353 888 353 1747 
Q 353 2609 779 3096 
Q 1206 3584 1959 3584 
z
" transform="scale(0.015625)"/>
       <path id="DejaVuSans-64" d="M 2906 2969 
L 2906 4863 
L 3481 4863 
L 3481 0 
L 2906 0 
L 2906 525 
Q 2725 213 2448 61 
Q 2172 -91 1784 -91 
Q 1150 -91 751 415 
Q 353 922 353 1747 
Q 353 2572 751 3078 
Q 1150 3584 1784 3584 
Q 2172 3584 2448 3432 
Q 2725 3281 2906 2969 
z
M 947 1747 
Q 947 1113 1208 752 
Q 1469 391 1925 391 
Q 2381 391 2643 752 
Q 2906 1113 2906 1747 
Q 2906 2381 2643 2742 
Q 2381 3103 1925 3103 
Q 1469 3103 1208 2742 
Q 947 2381 947 1747 
z
" transform="scale(0.015625)"/>
      </defs>
      <use xlink:href="#DejaVuSans-54"/>
      <use xlink:href="#DejaVuSans-72" x="46.333984"/>
      <use xlink:href="#DejaVuSans-61" x="87.447266"/>
      <use xlink:href="#DejaVuSans-69" x="148.726562"/>
      <use xlink:href="#DejaVuSans-6e" x="176.509766"/>
      <use xlink:href="#DejaVuSans-69" x="239.888672"/>
      <use xlink:href="#DejaVuSans-6e" x="267.671875"/>
      <use xlink:href="#DejaVuSans-67" x="331.050781"/>
      <use xlink:href="#DejaVuSans-20" x="394.527344"/>
      <use xlink:href="#DejaVuSans-65" x="426.314453"/>
      <use xlink:href="#DejaVuSans-70" x="487.837891"/>
      <use xlink:href="#DejaVuSans-69" x="551.314453"/>
      <use xlink:href="#DejaVuSans-73" x="579.097656"/>
      <use xlink:href="#DejaVuSans-6f" x="631.197266"/>
      <use xlink:href="#DejaVuSans-64" x="692.378906"/>
      <use xlink:href="#DejaVuSans-65" x="755.855469"/>
      <use xlink:href="#DejaVuSans-20" x="817.378906"/>
      <use xlink:href="#DejaVuSans-72" x="849.166016"/>
      <use xlink:href="#DejaVuSans-65" x="888.029297"/>
      <use xlink:href="#DejaVuSans-74" x="949.552734"/>
      <use xlink:href="#DejaVuSans-75" x="988.761719"/>
      <use xlink:href="#DejaVuSans-72" x="1052.140625"/>
      <use xlink:href="#DejaVuSans-6e" x="1091.503906"/>
     </g>
    </g>
   </g>
   <g id="line2d_15">
    <path d="M 73.832727 295.484718 
L 76.565507 295.290491 
L 84.187313 295.049214 
L 86.368451 294.679238 
L 88.552023 294.086052 
L 90.187471 293.458031 
L 91.279933 292.840879 
L 92.370502 292.012676 
L 94.005679 290.464061 
L 95.095706 289.155985 
L 96.729801 286.711983 
L 98.363895 283.698638 
L 98.908233 282.505 
L 99.453111 281.036469 
L 101.087747 275.054791 
L 101.632625 273.381878 
L 103.266179 266.366869 
L 104.355395 261.061183 
L 106.536532 252.102913 
L 108.715776 244.177811 
L 109.260384 242.341759 
L 109.805804 240.023076 
L 110.89529 236.397592 
L 111.988023 232.59127 
L 112.534525 231.779405 
L 113.079945 231.430154 
L 114.16889 229.336261 
L 114.714039 228.135892 
L 115.259188 226.571702 
L 115.803526 226.044421 
L 116.347593 224.576009 
L 116.892201 223.565237 
L 117.982769 222.426361 
L 118.527648 221.314353 
L 119.073338 220.612169 
L 119.618758 219.598156 
L 120.164989 219.212527 
L 120.710138 218.521965 
L 121.254476 218.068616 
L 121.799084 216.710509 
L 123.435072 214.572614 
L 123.979139 213.940533 
L 124.523476 213.920768 
L 125.068355 213.365099 
L 125.613775 213.042676 
L 126.158653 212.261639 
L 126.702991 211.86491 
L 127.24814 211.828823 
L 128.338979 211.138292 
L 128.883587 210.321577 
L 129.428736 209.057579 
L 129.974156 208.777114 
L 130.519034 208.066021 
L 131.065265 208.217345 
L 131.610144 208.661586 
L 132.155023 208.459386 
L 132.699901 208.612496 
L 133.24505 208.276945 
L 133.789929 208.359518 
L 134.335078 208.175178 
L 135.424835 208.649829 
L 135.969984 207.343687 
L 136.514863 206.59316 
L 137.060012 206.193945 
L 137.605702 206.408657 
L 138.15058 205.614796 
L 138.695729 205.574152 
L 139.241149 205.389305 
L 140.332529 203.859154 
L 141.422828 202.370309 
L 141.967436 202.048913 
L 142.512855 200.776864 
L 143.056922 200.281525 
L 145.236707 199.624618 
L 145.781856 199.273703 
L 146.326193 198.437357 
L 146.870801 198.601265 
L 147.416492 197.884378 
L 147.96137 197.522363 
L 148.506519 196.894354 
L 149.051939 197.296255 
L 149.596547 197.913061 
L 150.141967 197.756499 
L 150.687657 197.388187 
L 151.232535 197.249045 
L 151.777414 196.851467 
L 152.869606 197.314815 
L 153.414755 198.197954 
L 153.959633 197.835842 
L 154.504241 197.827645 
L 155.050743 197.299912 
L 155.595351 196.104379 
L 156.685379 195.82882 
L 157.23161 195.177494 
L 157.775948 195.260717 
L 158.322449 194.536281 
L 158.866787 194.125226 
L 159.410854 195.020658 
L 159.955732 193.98269 
L 160.500881 193.341433 
L 161.045219 193.111006 
L 161.589556 193.243276 
L 162.134164 192.797975 
L 162.679043 191.816195 
L 163.224192 191.20798 
L 163.769882 190.376507 
L 164.314761 190.799368 
L 164.86018 190.222716 
L 165.405059 189.973844 
L 165.950749 189.946672 
L 166.495628 190.121499 
L 167.041047 189.212829 
L 167.585926 188.618794 
L 168.129993 187.446808 
L 168.67433 187.630205 
L 169.220291 187.329671 
L 169.765711 186.700471 
L 170.85682 186.547276 
L 171.402511 185.954433 
L 171.947119 185.141048 
L 172.493079 184.940392 
L 173.037687 184.197585 
L 173.582295 183.853701 
L 174.126633 182.342865 
L 174.671782 181.720326 
L 175.21666 182.164255 
L 175.761268 181.957131 
L 176.306959 181.23809 
L 177.397257 180.725762 
L 177.942135 180.875507 
L 178.486743 181.387954 
L 179.031351 181.440247 
L 179.5765 181.917247 
L 180.121379 182.155486 
L 180.666799 181.361128 
L 181.211677 182.406237 
L 181.757367 181.209565 
L 182.847936 182.610607 
L 183.392003 183.226653 
L 183.937152 182.958015 
L 184.482301 183.402114 
L 185.02718 183.436966 
L 185.572058 184.120742 
L 186.118019 183.844652 
L 186.66398 183.791081 
L 187.752655 184.363226 
L 188.298074 184.907914 
L 188.842953 185.045832 
L 189.388643 184.917343 
L 189.93271 184.436103 
L 191.022737 185.650253 
L 191.567616 185.817496 
L 192.112495 186.484257 
L 193.746319 183.813343 
L 194.290927 183.336047 
L 194.835805 182.376895 
L 195.380954 181.093436 
L 195.925292 181.313906 
L 196.469359 182.045 
L 197.013425 182.184768 
L 197.558033 181.941843 
L 198.102912 182.397299 
L 198.648061 182.188587 
L 199.192669 182.131482 
L 200.284049 183.050689 
L 201.374077 181.838036 
L 201.918685 181.734916 
L 203.007901 182.65439 
L 203.552239 183.269398 
L 204.096847 184.441896 
L 204.641996 185.331201 
L 205.186604 185.535487 
L 205.731753 185.287744 
L 206.277443 184.547802 
L 206.823404 183.371574 
L 207.368282 184.11485 
L 207.91262 183.459755 
L 209.002377 183.61721 
L 209.546714 183.583761 
L 210.092134 183.319814 
L 211.726769 184.400576 
L 212.27273 184.631374 
L 212.819232 184.225288 
L 213.363028 182.954419 
L 213.907907 183.213477 
L 214.451974 183.009691 
L 214.996311 183.875055 
L 215.542001 184.304634 
L 216.086339 183.93591 
L 216.631488 183.28185 
L 217.176096 183.213719 
L 217.721516 183.693751 
L 218.266935 183.551313 
L 218.811814 183.124311 
L 219.356422 183.581936 
L 219.901571 182.763015 
L 220.448073 182.7914 
L 220.992681 182.974714 
L 221.536748 183.032416 
L 222.081356 183.667902 
L 222.625423 183.312546 
L 224.262764 180.702415 
L 224.807642 180.570581 
L 225.355226 180.557824 
L 226.445795 181.388834 
L 226.989862 181.952363 
L 227.535823 181.288197 
L 228.081513 181.441135 
L 228.626121 180.88326 
L 229.170999 180.846807 
L 230.807799 181.841682 
L 231.352137 182.246232 
L 231.896745 181.179975 
L 232.442435 181.641844 
L 232.987584 180.326857 
L 233.531921 179.477263 
L 234.0768 179.857631 
L 234.621949 179.134251 
L 235.167098 179.450543 
L 235.712518 179.162863 
L 236.257126 179.019658 
L 236.800922 178.382519 
L 237.890409 176.720411 
L 238.435558 176.989621 
L 238.981789 176.751196 
L 239.526668 175.948026 
L 240.071276 176.374468 
L 241.162656 177.530335 
L 241.708346 177.959081 
L 242.252954 177.376593 
L 242.798644 177.42144 
L 243.342982 177.329176 
L 243.887049 177.498949 
L 244.431927 176.921303 
L 244.977076 177.542729 
L 246.067916 176.524009 
L 246.613335 177.173473 
L 247.158755 177.532305 
L 247.703363 178.089122 
L 249.337728 176.796914 
L 250.428026 177.459195 
L 250.972364 178.778418 
L 251.517783 178.306364 
L 252.063203 179.083362 
L 252.608081 179.056338 
L 253.15296 177.869397 
L 253.697027 177.8321 
L 254.241635 177.978788 
L 254.786243 176.662136 
L 255.331663 177.195368 
L 255.876541 175.826312 
L 256.421149 176.366509 
L 256.966028 176.413244 
L 257.510636 176.826285 
L 258.055244 176.303582 
L 258.600122 176.401352 
L 259.145271 175.800699 
L 259.69502 175.823425 
L 260.240169 176.464519 
L 261.329926 177.004942 
L 261.874804 178.015186 
L 262.419953 178.168738 
L 262.96402 177.478553 
L 263.508087 177.594025 
L 264.054048 177.241472 
L 264.599738 177.336774 
L 265.145969 176.678369 
L 265.691119 176.455164 
L 266.236809 176.426371 
L 266.782228 176.6009 
L 267.327107 175.666872 
L 267.872527 176.260505 
L 268.417405 175.763908 
L 268.963095 176.640412 
L 269.507974 176.37652 
L 270.052852 176.564971 
L 270.597731 174.823471 
L 271.141798 174.860624 
L 271.686406 175.431523 
L 272.231014 176.716916 
L 273.3205 177.14745 
L 273.865108 178.139322 
L 274.955407 177.565419 
L 276.044081 177.861056 
L 277.132756 176.97843 
L 277.677364 177.772204 
L 278.222243 178.310954 
L 279.313623 177.477151 
L 279.858231 176.807466 
L 280.403921 177.74355 
L 280.948529 177.847115 
L 282.038557 177.474339 
L 282.582624 176.87129 
L 283.127232 176.459581 
L 283.671569 175.841009 
L 284.216719 175.772374 
L 284.761868 175.843051 
L 286.943276 174.217792 
L 287.489777 174.29286 
L 288.036279 173.546076 
L 288.581428 172.991297 
L 289.126307 173.028651 
L 290.217417 172.773212 
L 290.761754 172.849658 
L 291.306362 173.3071 
L 291.850429 173.354583 
L 292.938833 172.62589 
L 293.483712 171.891412 
L 294.027779 171.898278 
L 294.572657 171.530674 
L 295.118077 171.787469 
L 295.664038 170.983527 
L 296.208646 170.466827 
L 297.297862 169.99472 
L 297.843552 169.415836 
L 298.387889 169.388381 
L 298.93385 169.062111 
L 299.47927 168.970848 
L 300.024689 168.477288 
L 301.659866 167.894257 
L 302.206368 168.720657 
L 302.751788 168.718698 
L 303.295855 169.120955 
L 303.840733 169.334342 
L 304.385882 169.261203 
L 304.931031 167.807863 
L 305.477804 166.784213 
L 306.0216 167.127408 
L 306.567561 167.168301 
L 307.113521 167.467381 
L 307.658671 167.195984 
L 308.20382 167.786667 
L 308.748969 167.096314 
L 309.294929 167.072884 
L 309.839537 167.978473 
L 310.384145 168.263796 
L 310.928212 169.772547 
L 311.474444 169.528738 
L 312.019593 170.675656 
L 312.564742 170.572667 
L 313.109079 169.645728 
L 313.654499 169.248883 
L 314.198566 168.156966 
L 314.743444 166.6477 
L 315.289405 166.307597 
L 315.834554 165.314725 
L 316.380244 165.641428 
L 316.925393 165.698414 
L 318.015151 164.062537 
L 318.559759 163.246451 
L 319.104096 163.361961 
L 319.648704 164.573482 
L 320.738732 164.689676 
L 321.283881 165.801744 
L 321.827948 166.099244 
L 322.917705 164.898533 
L 323.462583 165.275195 
L 324.007732 165.25609 
L 325.098031 164.461282 
L 325.644262 165.60368 
L 326.189681 167.816431 
L 326.734831 166.891442 
L 327.279439 166.814098 
L 327.824047 168.004312 
L 328.368655 168.830202 
L 328.913263 168.401174 
L 329.4576 168.803945 
L 330.00302 167.285777 
L 330.549251 166.10803 
L 331.094941 166.199578 
L 331.639279 165.738026 
L 332.183345 165.748254 
L 332.728495 164.866108 
L 333.273914 164.972783 
L 333.819063 165.193382 
L 334.364483 164.597623 
L 334.911526 164.487886 
L 335.456134 164.211743 
L 336.000742 164.547874 
L 336.545891 164.233875 
L 337.635648 165.203118 
L 338.180256 166.316858 
L 338.726217 166.464893 
L 339.270554 166.778454 
L 339.815162 166.21175 
L 340.360852 165.276229 
L 340.906543 165.363507 
L 341.452233 165.198616 
L 341.99657 164.015073 
L 342.54226 163.466316 
L 343.086327 164.01083 
L 343.631206 163.744568 
L 344.176625 164.167972 
L 344.721775 163.634928 
L 345.266653 163.340959 
L 345.811532 163.437949 
L 346.357222 164.352797 
L 346.9021 163.709101 
L 347.446979 163.454863 
L 347.992128 163.656983 
L 348.537277 163.440182 
L 349.081615 162.887279 
L 349.626493 163.793685 
L 350.17056 163.722637 
L 350.715168 164.234357 
L 351.260588 163.702056 
L 351.807631 164.461355 
L 352.352239 164.438296 
L 352.896576 164.930858 
L 353.441455 164.770834 
L 353.986874 165.556662 
L 354.531753 165.625044 
L 355.076631 166.281974 
L 355.621239 164.175811 
L 356.166118 164.266338 
L 356.709914 163.731742 
L 357.255334 165.214962 
L 357.800753 165.385017 
L 358.345632 164.823683 
L 358.891052 164.701631 
L 359.437283 165.110177 
L 359.983244 163.799937 
L 360.530557 164.461246 
L 361.075436 163.839691 
L 361.621937 162.757557 
L 362.167087 161.124587 
L 362.712777 160.512337 
L 363.801452 158.827807 
L 364.345789 159.128017 
L 364.890127 159.618843 
L 365.980695 160.842802 
L 367.070723 160.637148 
L 367.615331 159.291409 
L 368.159668 159.73024 
L 368.704006 158.599317 
L 369.248073 158.291758 
L 369.793492 157.50763 
L 370.88352 154.948082 
L 371.973548 152.673011 
L 372.518697 152.783889 
L 373.063034 152.32352 
L 373.607101 152.036229 
L 374.152521 151.903947 
L 374.69767 152.253966 
L 375.243631 152.290707 
L 375.788239 152.696806 
L 376.333658 152.736488 
L 376.879078 152.307537 
L 377.422874 152.733616 
L 377.967212 152.136368 
L 379.6032 154.853851 
L 380.69458 154.857268 
L 381.24 154.496639 
L 381.784067 156.175563 
L 382.329216 157.373142 
L 382.874095 157.027808 
L 383.964122 157.627708 
L 384.510895 157.47639 
L 385.056314 156.426232 
L 385.601193 155.891335 
L 386.146883 154.691511 
L 386.690679 154.443527 
L 387.235828 154.009568 
L 387.780977 154.693033 
L 388.326668 154.41165 
L 388.871276 154.406697 
L 389.415884 153.501832 
L 389.959951 153.566182 
L 390.5051 153.816376 
L 390.5051 153.816376 
" clip-path="url(#p28d34bcac5)" style="fill: none; stroke: #8c564b; stroke-width: 1.5; stroke-linecap: square"/>
   </g>
   <g id="LineCollection_1">
    <path d="M 174.671782 295.488 
L 174.671782 182.165927 
" clip-path="url(#p28d34bcac5)" style="fill: none; stroke-dasharray: 1.5,7.5; stroke-dashoffset: 0; stroke: #8c564b; stroke-width: 1.5"/>
   </g>
   <g id="line2d_16">
    <path d="M 73.832727 295.488 
L 78.202307 295.262655 
L 83.65488 295.156632 
L 85.837641 294.856192 
L 88.01959 294.31835 
L 89.657201 293.655422 
L 90.748852 292.957095 
L 91.840503 292.010053 
L 92.93026 290.718737 
L 94.022452 288.907156 
L 95.113833 286.846105 
L 96.206025 283.918409 
L 97.296864 279.434839 
L 98.387703 273.903992 
L 100.025585 264.394344 
L 100.571276 260.426662 
L 101.117777 257.49896 
L 102.209969 250.748791 
L 104.935985 236.864822 
L 106.572785 229.615539 
L 108.754735 221.784925 
L 109.299343 220.260014 
L 109.844762 219.156906 
L 112.026441 212.882896 
L 112.570778 212.244158 
L 113.115386 211.235522 
L 113.660806 210.669318 
L 114.207308 210.374448 
L 114.753809 209.598804 
L 115.300041 208.269515 
L 116.388986 207.13238 
L 116.935217 206.584034 
L 119.117437 203.099402 
L 119.664209 202.938055 
L 120.2099 203.010545 
L 121.847511 200.783095 
L 122.39266 200.879674 
L 122.936998 199.307822 
L 123.481876 198.299251 
L 124.572175 196.780961 
L 125.117324 195.946351 
L 125.663014 194.816964 
L 126.208433 192.447195 
L 126.753853 192.045883 
L 127.299273 192.0066 
L 127.84334 191.574879 
L 128.388759 191.408636 
L 128.934179 192.245507 
L 129.48014 192.238456 
L 130.02583 191.866956 
L 131.11694 190.003272 
L 131.661818 189.699806 
L 132.207508 188.506181 
L 132.752928 188.591114 
L 133.845661 187.480316 
L 134.938665 187.349073 
L 135.483814 187.264432 
L 136.030045 186.449017 
L 136.574924 185.05588 
L 137.665492 184.01411 
L 138.212806 182.625923 
L 138.757414 182.070853 
L 139.302022 182.136206 
L 139.847983 181.103032 
L 140.392591 180.756509 
L 140.938281 180.554243 
L 142.030473 180.566708 
L 143.121312 177.787774 
L 143.667273 177.542691 
L 144.212422 177.724168 
L 144.757571 177.356742 
L 145.30272 177.264764 
L 145.849763 177.686003 
L 146.394912 177.17709 
L 146.941414 177.406027 
L 147.487375 176.655509 
L 148.032524 176.795886 
L 149.122281 175.815438 
L 149.667159 174.635616 
L 150.212308 174.38294 
L 150.758269 173.661323 
L 151.303418 175.190565 
L 151.849108 174.687137 
L 152.394257 174.523656 
L 152.939136 173.678906 
L 153.484285 173.688647 
L 154.029975 171.896403 
L 154.575665 170.799197 
L 155.120273 170.046577 
L 155.667046 170.466103 
L 156.212736 170.519288 
L 156.757344 169.621862 
L 157.302764 169.720144 
L 157.848454 169.277602 
L 158.395497 169.542634 
L 158.940916 168.931941 
L 159.486607 168.638638 
L 160.577987 169.761848 
L 161.123677 170.741526 
L 161.669908 170.57463 
L 162.76183 168.809389 
L 163.307791 169.214912 
L 163.852399 168.811382 
L 164.39863 167.72997 
L 164.943238 167.206632 
L 165.488657 167.60655 
L 166.034618 167.194806 
L 166.580308 167.395888 
L 167.125457 165.679495 
L 167.670336 164.356169 
L 168.215485 165.500816 
L 168.761716 165.8646 
L 169.306865 166.816125 
L 169.853367 167.009509 
L 170.944477 165.324299 
L 171.489356 164.826461 
L 172.034505 165.637326 
L 172.580195 164.374315 
L 173.125615 164.643008 
L 173.672116 164.383126 
L 174.217536 163.552457 
L 174.762956 163.398278 
L 175.308105 163.457663 
L 175.852442 163.91981 
L 176.39678 163.163346 
L 176.94274 163.123209 
L 177.487348 163.686804 
L 178.031686 163.725057 
L 178.576294 163.083548 
L 179.121172 163.55705 
L 179.666051 164.190486 
L 180.212823 165.656957 
L 180.758243 166.042231 
L 181.304745 166.101086 
L 183.486694 163.445877 
L 184.032384 164.07997 
L 184.577533 164.448001 
L 185.122953 165.735525 
L 185.668913 165.992037 
L 186.214333 166.395265 
L 187.304902 165.37123 
L 187.84978 163.958615 
L 188.395741 163.82175 
L 188.940349 164.758062 
L 189.484416 163.757924 
L 190.029565 163.911607 
L 190.574985 165.013301 
L 191.120675 164.701225 
L 191.665824 165.773548 
L 192.757475 164.39994 
L 193.304247 164.455459 
L 193.849937 163.081954 
L 194.396439 162.975256 
L 194.943482 162.707509 
L 195.488631 162.132239 
L 196.034051 161.113174 
L 196.578929 160.71761 
L 197.125161 160.566926 
L 197.67058 160.065385 
L 198.216271 159.186439 
L 198.762502 159.339121 
L 199.307651 159.740631 
L 199.853341 159.662232 
L 200.39822 158.505815 
L 200.942557 158.489634 
L 201.487436 158.006428 
L 202.033667 157.899068 
L 202.579628 157.51856 
L 203.124777 156.105818 
L 203.671008 155.06211 
L 204.763741 155.097351 
L 205.309702 157.592578 
L 205.854851 157.107685 
L 206.4 157.259814 
L 206.944337 156.522376 
L 207.489487 156.907772 
L 208.035447 157.443954 
L 208.579514 157.260484 
L 209.670353 158.38641 
L 210.216314 157.878419 
L 211.306883 157.671435 
L 211.853385 157.411701 
L 212.398263 156.250589 
L 212.943412 156.995038 
L 213.488832 157.220276 
L 214.034252 156.344399 
L 215.125091 157.343667 
L 215.670511 155.63095 
L 216.21593 155.274556 
L 216.762161 155.733118 
L 217.308393 155.498331 
L 217.854083 155.844982 
L 218.399232 155.018108 
L 218.945463 154.561533 
L 219.490612 155.105257 
L 220.036032 155.268643 
L 220.581452 155.695707 
L 221.12633 155.729228 
L 221.672291 154.731168 
L 222.218793 154.610958 
L 223.310985 152.555665 
L 223.856404 153.81068 
L 224.401283 153.24282 
L 225.492122 152.474998 
L 226.583503 149.657082 
L 227.129193 149.404409 
L 227.674342 147.928844 
L 228.220573 147.319706 
L 229.311412 146.593688 
L 229.857103 146.745713 
L 230.402522 147.59273 
L 230.948483 147.466202 
L 231.493632 146.354293 
L 232.040675 147.482693 
L 232.586906 147.34452 
L 233.131244 147.497034 
L 233.677204 146.085621 
L 234.222353 146.15112 
L 234.768314 147.078943 
L 235.312922 147.575519 
L 235.859695 147.516913 
L 236.406467 147.661967 
L 236.953239 147.012992 
L 237.499741 147.952735 
L 238.04462 149.408192 
L 238.589498 150.026232 
L 239.135459 151.390424 
L 239.680337 151.030742 
L 240.224945 151.502356 
L 240.769824 151.549459 
L 241.314703 151.237627 
L 241.860122 149.647613 
L 242.405271 148.764984 
L 242.95015 149.47915 
L 243.496111 149.776154 
L 244.586138 149.721468 
L 245.677248 149.864048 
L 246.222668 149.768784 
L 246.769169 150.298015 
L 247.859738 148.562868 
L 248.40624 148.535184 
L 248.95166 148.115597 
L 249.49762 149.22407 
L 250.589001 148.227507 
L 251.678758 149.078317 
L 252.224448 149.018075 
L 252.769597 149.809227 
L 253.316911 148.48829 
L 254.953981 147.248155 
L 255.499401 147.43252 
L 256.04455 145.605309 
L 256.591863 144.854861 
L 257.682161 144.590355 
L 258.229204 144.84462 
L 258.777059 144.972033 
L 259.322208 144.387023 
L 260.413318 144.129648 
L 260.960902 143.597371 
L 261.506863 142.51765 
L 262.051471 143.490291 
L 262.597161 142.408323 
L 263.144474 141.571167 
L 263.689623 142.336505 
L 264.235584 142.482729 
L 264.781004 142.469138 
L 265.328047 142.234475 
L 265.874548 143.632101 
L 266.419968 143.666548 
L 266.965117 143.337579 
L 267.509996 142.572262 
L 268.599753 144.488099 
L 269.145713 144.830405 
L 270.237635 144.994233 
L 270.782243 146.078916 
L 271.327933 146.018289 
L 271.873082 145.200709 
L 272.41742 144.829688 
L 273.507718 143.859387 
L 274.053408 144.549259 
L 274.599369 144.415867 
L 275.144247 143.97654 
L 275.689667 145.221209 
L 276.234816 143.45318 
L 276.782129 143.171184 
L 277.872969 142.895491 
L 278.417577 140.6288 
L 278.963267 140.704314 
L 279.508687 139.620615 
L 280.053565 137.504413 
L 280.598714 136.500792 
L 281.143322 135.176319 
L 281.690095 135.665531 
L 282.235244 135.169121 
L 282.783098 136.037445 
L 283.328518 136.354499 
L 283.874208 135.859888 
L 284.419628 135.662048 
L 284.964506 134.935052 
L 285.508844 134.889926 
L 286.054804 133.493277 
L 286.600765 133.113357 
L 287.146726 132.347592 
L 288.237836 132.932839 
L 288.783526 131.833173 
L 289.875177 131.870556 
L 290.421408 131.613511 
L 290.966828 130.715395 
L 291.512247 130.725956 
L 292.058208 130.434102 
L 292.602545 129.345796 
L 293.693926 129.712506 
L 294.238804 129.22115 
L 294.784495 127.705626 
L 295.330726 127.018032 
L 295.875063 127.211657 
L 296.420212 128.302969 
L 296.965632 128.001326 
L 297.510511 126.770712 
L 298.05593 127.288245 
L 299.693542 125.642105 
L 300.238691 125.424829 
L 300.784922 126.480097 
L 301.330612 126.691067 
L 301.878737 126.423209 
L 302.423887 126.620518 
L 302.969036 126.359912 
L 303.51689 125.908456 
L 304.061769 124.728192 
L 304.606647 124.164991 
L 305.151526 124.41634 
L 305.696945 125.378372 
L 306.241553 124.348884 
L 306.786703 124.526586 
L 307.332663 125.67478 
L 307.878624 124.780363 
L 308.422961 125.060282 
L 308.967569 123.888804 
L 309.515424 126.137389 
L 310.061114 125.939943 
L 310.607345 127.231069 
L 311.152224 129.21033 
L 311.697914 130.256781 
L 312.790106 128.956135 
L 313.334714 129.426657 
L 313.882298 129.066171 
L 314.427447 128.270243 
L 315.516934 128.303265 
L 316.062083 128.74399 
L 316.608314 128.163099 
L 317.154004 128.419773 
L 317.699695 127.565989 
L 318.791345 126.932137 
L 319.336495 127.586351 
L 319.881644 127.517901 
L 320.427875 128.19502 
L 321.519255 126.853603 
L 322.064134 127.560161 
L 322.609824 127.504389 
L 323.155785 128.419989 
L 323.700122 127.569548 
L 324.245812 128.794497 
L 324.792314 128.986143 
L 325.337734 128.746011 
L 325.883153 127.515114 
L 326.429114 127.430292 
L 326.973993 127.937048 
L 327.519412 127.683953 
L 328.065373 127.709646 
L 328.611063 129.170091 
L 329.157024 128.70976 
L 329.702173 128.55973 
L 330.247593 128.530583 
L 330.793012 126.98898 
L 331.338973 127.669252 
L 331.885204 127.596739 
L 332.430353 127.341347 
L 332.976585 127.556014 
L 333.521463 126.072404 
L 334.067695 125.462689 
L 335.157993 124.788796 
L 335.703142 125.663183 
L 336.249644 125.48123 
L 336.794793 124.735332 
L 337.341024 123.745812 
L 337.885903 123.413164 
L 338.431052 124.65588 
L 338.977012 123.320254 
L 339.52162 122.312114 
L 340.06704 121.852731 
L 340.611377 120.8344 
L 341.703299 119.651223 
L 342.250612 120.257352 
L 343.341181 122.683564 
L 343.88606 122.600525 
L 344.431479 123.351823 
L 344.976358 124.835055 
L 345.521507 125.62597 
L 346.067468 125.357413 
L 346.613158 126.584942 
L 347.158307 126.142969 
L 347.703727 126.72375 
L 348.248876 126.431372 
L 348.793754 126.742869 
L 349.338633 126.126542 
L 349.884052 127.199355 
L 350.428931 126.620754 
L 350.975703 127.00764 
L 351.521664 126.713148 
L 352.066272 127.379753 
L 352.611421 127.754691 
L 353.156841 126.579438 
L 354.248221 125.727311 
L 354.794182 125.003733 
L 355.338519 124.985543 
L 355.882857 124.160116 
L 356.427465 122.684165 
L 356.974778 121.788898 
L 358.064535 120.701862 
L 359.701065 117.650223 
L 360.246214 117.944974 
L 360.791904 116.54493 
L 361.881932 117.022206 
L 362.9725 116.864232 
L 364.062799 116.895241 
L 364.609571 116.730582 
L 365.15472 116.026134 
L 365.699599 114.906114 
L 366.79152 113.702815 
L 367.33721 112.331263 
L 367.883712 111.924972 
L 368.429402 111.109645 
L 368.975363 110.69733 
L 369.521594 109.746014 
L 370.067284 109.472649 
L 370.613245 108.706896 
L 371.158124 108.294194 
L 371.704896 108.306815 
L 372.250045 107.715886 
L 372.795735 106.376544 
L 373.342508 106.479552 
L 373.889009 105.567279 
L 374.433888 106.464292 
L 374.979308 106.44614 
L 375.525539 105.542948 
L 376.070688 106.633397 
L 376.615837 108.909077 
L 377.707488 105.994578 
L 378.25426 106.168329 
L 378.799951 106.005177 
L 379.34537 106.144933 
L 379.890249 105.209908 
L 380.435939 104.981139 
L 380.981088 105.054639 
L 381.525696 103.756617 
L 382.616535 102.666461 
L 383.161955 101.422961 
L 383.707104 101.541795 
L 384.797943 101.432956 
L 385.344445 102.772829 
L 385.888783 103.423176 
L 386.434743 102.790549 
L 386.979892 104.080065 
L 387.525312 104.727953 
L 388.071273 103.546243 
L 388.616422 104.943095 
L 389.161841 104.587357 
L 389.706449 104.591472 
L 390.251328 105.501291 
L 390.251328 105.501291 
" clip-path="url(#p28d34bcac5)" style="fill: none; stroke: #9467bd; stroke-width: 1.5; stroke-linecap: square"/>
   </g>
   <g id="LineCollection_2">
    <path d="M 138.757414 295.488 
L 138.757414 182.165927 
" clip-path="url(#p28d34bcac5)" style="fill: none; stroke-dasharray: 1.5,7.5; stroke-dashoffset: 0; stroke: #9467bd; stroke-width: 1.5"/>
   </g>
   <g id="line2d_17">
    <path d="M 73.832727 295.444221 
L 76.083936 295.254032 
L 77.716678 295.239062 
L 83.174662 295.135218 
L 85.358775 294.805642 
L 87.542077 294.189055 
L 88.63481 293.733838 
L 89.726191 293.073242 
L 91.364073 291.399821 
L 92.456535 289.724222 
L 93.548457 287.777277 
L 94.094959 286.442196 
L 95.186609 282.710422 
L 95.7323 280.212695 
L 97.369641 270.349088 
L 99.555919 254.803844 
L 101.741655 240.814877 
L 103.92658 229.093749 
L 105.563921 221.565913 
L 106.655302 217.294853 
L 108.293725 211.138927 
L 108.838604 209.46643 
L 109.384023 208.169718 
L 109.929984 206.301764 
L 111.566513 202.223749 
L 113.754685 196.422773 
L 114.299564 195.471107 
L 114.844713 194.950549 
L 115.390403 193.968753 
L 115.935823 191.925384 
L 116.481783 191.400154 
L 117.028015 189.858991 
L 117.573975 189.254025 
L 118.665356 186.39134 
L 119.210505 185.816046 
L 119.756736 185.035184 
L 121.938956 180.924822 
L 122.485457 179.91112 
L 123.03223 178.160581 
L 123.579002 177.166042 
L 124.124963 175.90878 
L 124.669841 175.559449 
L 125.216884 175.343675 
L 126.308535 173.921204 
L 126.854496 175.447615 
L 127.401268 174.371116 
L 127.9475 174.186186 
L 128.494001 172.947491 
L 129.040774 173.547439 
L 129.587276 172.016531 
L 130.133507 171.710987 
L 130.679197 170.105414 
L 131.225969 169.616167 
L 131.773824 169.524488 
L 132.318703 168.503234 
L 132.864393 168.400512 
L 133.409542 166.771523 
L 133.956044 166.238376 
L 134.502004 164.54875 
L 135.047965 163.754038 
L 135.595549 163.813979 
L 136.143674 162.42836 
L 136.688823 161.662446 
L 137.234784 162.185417 
L 138.325894 158.303983 
L 138.871313 158.134526 
L 139.417815 157.309832 
L 139.963776 155.976199 
L 140.509466 156.667563 
L 141.055156 155.538128 
L 141.601388 155.802196 
L 142.147619 155.293728 
L 142.692227 153.941117 
L 143.237917 154.147301 
L 143.783878 154.640232 
L 144.330109 154.088396 
L 144.875799 153.890559 
L 145.968803 153.976937 
L 146.515034 153.827809 
L 148.152375 151.392087 
L 148.698065 151.47039 
L 149.243215 150.943094 
L 149.788634 151.540559 
L 150.336218 152.399837 
L 150.882449 151.920807 
L 151.42814 151.731544 
L 151.974912 152.27939 
L 152.520332 151.447713 
L 153.06494 151.787562 
L 153.611983 151.530941 
L 154.157402 151.942325 
L 155.249053 152.544741 
L 157.431273 151.124768 
L 157.976151 151.658101 
L 159.068884 149.966388 
L 159.614845 149.851666 
L 160.159994 150.05999 
L 161.251916 149.189311 
L 161.800852 148.454298 
L 163.438735 150.168305 
L 163.985777 149.615075 
L 164.530927 150.099098 
L 165.076617 149.685903 
L 165.622577 149.712949 
L 166.16935 148.970405 
L 166.715311 148.975497 
L 167.26046 149.604896 
L 167.806691 149.546155 
L 168.353193 149.093898 
L 168.900777 147.560644 
L 169.993239 146.776066 
L 170.538118 146.714337 
L 171.084079 146.28194 
L 171.629228 147.673509 
L 172.175729 146.274401 
L 172.721961 147.553854 
L 173.267651 147.73941 
L 173.814153 147.293356 
L 174.359843 147.760022 
L 174.904451 147.181656 
L 175.451494 147.342352 
L 175.996372 146.42271 
L 176.542874 144.90606 
L 177.090458 144.548736 
L 177.63696 143.880538 
L 178.183462 143.878378 
L 178.729423 142.923508 
L 179.274842 142.381928 
L 179.821073 142.249154 
L 180.367034 142.934285 
L 180.914618 142.468707 
L 181.462202 143.105171 
L 182.00681 143.513197 
L 182.554124 144.580961 
L 183.099814 143.715209 
L 183.646857 143.189098 
L 184.193359 142.158355 
L 184.73986 141.418791 
L 185.28528 141.120369 
L 185.832052 140.958643 
L 186.922892 139.560656 
L 187.46777 138.024696 
L 188.014543 138.965911 
L 188.561044 136.928406 
L 189.108358 138.119171 
L 189.654048 137.443533 
L 190.74624 138.032092 
L 191.292201 137.771752 
L 191.83762 136.137306 
L 192.383581 135.80029 
L 192.929542 133.84788 
L 193.475773 134.16436 
L 195.114737 134.484027 
L 195.663133 133.922097 
L 196.209094 133.913616 
L 196.755055 134.115795 
L 197.301827 133.389763 
L 197.847788 134.072784 
L 198.393748 133.653524 
L 198.94025 133.679488 
L 199.486211 133.205307 
L 200.031631 132.241755 
L 200.577862 130.703722 
L 201.123552 130.404947 
L 201.669242 129.462295 
L 202.216556 129.877432 
L 202.762516 131.090283 
L 203.855791 128.930923 
L 204.402292 129.660619 
L 204.948253 129.949687 
L 205.494484 129.475561 
L 206.040175 129.866519 
L 206.586406 128.90601 
L 207.132367 126.813753 
L 207.677786 126.220971 
L 208.222935 125.936119 
L 208.768625 124.946167 
L 209.313775 124.406716 
L 209.859465 123.030018 
L 210.404614 123.543023 
L 210.951657 123.86131 
L 211.497076 124.569142 
L 212.043578 124.92994 
L 212.591703 124.942184 
L 213.137123 125.373762 
L 213.683354 124.603234 
L 214.231209 124.399158 
L 214.776628 124.376503 
L 215.321777 123.502149 
L 215.86855 123.178045 
L 216.413969 122.506092 
L 216.95966 122.855229 
L 217.50562 122.258554 
L 218.050769 122.414438 
L 218.59673 122.924713 
L 219.144314 122.796185 
L 219.690545 122.244026 
L 220.236506 120.044378 
L 220.782737 120.762151 
L 222.421972 120.832837 
L 223.515247 119.051471 
L 224.060937 120.077769 
L 225.155293 119.405912 
L 225.700983 118.680311 
L 226.246403 118.550152 
L 226.792364 117.811624 
L 227.337783 117.395363 
L 227.883473 117.685448 
L 228.428623 117.247027 
L 228.975395 116.641783 
L 229.522438 116.280706 
L 230.068128 116.397585 
L 230.613548 117.606305 
L 231.158426 117.683734 
L 231.704657 117.071769 
L 232.250077 117.171394 
L 232.794956 117.415705 
L 233.340375 116.683336 
L 233.886607 117.506984 
L 234.433108 116.891281 
L 234.97934 117.491163 
L 235.524218 116.981481 
L 236.071802 117.427214 
L 236.617763 117.011587 
L 237.163994 116.775878 
L 237.710767 116.026916 
L 238.802959 113.385459 
L 239.34919 114.286288 
L 239.894609 114.727919 
L 240.985449 114.189701 
L 241.530327 115.079865 
L 242.076288 115.326813 
L 242.62306 115.786118 
L 243.200134 115.948276 
L 243.745824 115.623744 
L 244.291785 114.917522 
L 244.837745 115.015961 
L 245.384518 116.625751 
L 245.93102 116.682887 
L 247.56782 117.355272 
L 248.113239 116.170315 
L 248.658929 116.118671 
L 249.752204 115.61594 
L 250.297623 114.672892 
L 250.844125 114.319714 
L 251.389545 114.27539 
L 252.482278 112.523416 
L 253.027697 112.776369 
L 253.573658 111.990318 
L 254.118266 111.812496 
L 255.210188 112.718753 
L 255.756689 112.665738 
L 256.303732 113.755669 
L 256.849693 111.908539 
L 257.395383 111.104892 
L 258.485952 108.592792 
L 259.031913 109.48716 
L 259.577332 109.022046 
L 260.123564 108.752326 
L 260.670065 108.355842 
L 261.216297 106.953019 
L 262.856884 107.404486 
L 263.403386 106.798536 
L 263.948535 107.037674 
L 264.495308 106.259845 
L 265.040998 106.175981 
L 265.586147 106.654092 
L 266.13346 107.585735 
L 266.679962 108.155359 
L 267.227005 107.175484 
L 267.773507 108.130698 
L 268.318385 107.379208 
L 268.865699 107.818794 
L 269.411389 106.809608 
L 269.958432 106.38125 
L 270.503852 105.533688 
L 271.596855 104.706597 
L 272.142545 104.619709 
L 272.689047 104.215341 
L 273.238525 103.088922 
L 273.78665 102.914121 
L 274.333423 103.274864 
L 274.879924 102.949973 
L 275.426697 103.560199 
L 275.972928 105.208408 
L 276.518889 105.241276 
L 277.063767 105.789006 
L 277.61054 106.122899 
L 278.156771 105.878582 
L 278.703002 106.694296 
L 279.796006 107.688046 
L 280.341967 107.909754 
L 281.434159 106.983054 
L 281.979849 105.796573 
L 282.52608 104.252175 
L 283.07177 103.872975 
L 283.618001 104.454222 
L 284.163421 104.077256 
L 285.25399 101.881242 
L 285.800221 101.712183 
L 286.346452 101.926017 
L 286.892143 99.874059 
L 287.438103 99.582274 
L 287.983252 100.800657 
L 288.528672 101.149372 
L 289.074362 101.815348 
L 289.620052 101.619136 
L 290.166284 100.855451 
L 290.711703 101.753575 
L 291.257393 101.753126 
L 291.804707 102.215122 
L 292.350127 102.241972 
L 292.896087 103.161974 
L 293.989091 102.993013 
L 294.535593 101.503212 
L 296.176451 101.254447 
L 296.722682 100.733756 
L 297.268102 99.793226 
L 297.814063 102.875399 
L 298.358941 103.96959 
L 298.904902 103.225283 
L 299.450321 102.953177 
L 299.997094 102.92345 
L 300.542243 101.874626 
L 301.087392 102.061488 
L 302.179855 100.165605 
L 302.726356 100.008459 
L 303.820172 97.572707 
L 304.366132 97.282473 
L 304.912905 97.585641 
L 305.458595 96.332792 
L 306.003473 96.625355 
L 306.550246 95.910968 
L 307.095936 97.023152 
L 307.641085 97.090817 
L 308.186775 96.286308 
L 308.733548 97.021281 
L 309.279238 96.782937 
L 309.82574 95.865327 
L 310.372512 95.179744 
L 311.463081 93.486304 
L 312.009853 93.34093 
L 312.555543 92.911352 
L 313.101504 92.706817 
L 313.649088 94.117715 
L 314.195319 93.21897 
L 314.741009 93.227962 
L 315.287511 93.364177 
L 315.833472 93.912811 
L 316.378351 93.037296 
L 316.924852 93.220665 
L 318.015692 92.528627 
L 318.561652 92.87052 
L 319.107343 92.663281 
L 319.652221 92.070525 
L 320.198452 90.16831 
L 320.744684 90.630381 
L 321.289562 90.586753 
L 321.837146 91.545511 
L 322.383377 91.108078 
L 322.929879 91.872682 
L 323.476381 92.149998 
L 324.023424 92.190025 
L 324.569655 91.82579 
L 325.115075 91.985625 
L 325.660765 91.165321 
L 326.206455 91.826871 
L 326.752416 91.840108 
L 327.298647 91.058687 
L 328.39138 90.454473 
L 328.938423 91.215699 
L 329.485196 90.476954 
L 330.031697 89.468447 
L 330.577658 88.929915 
L 331.124431 89.228406 
L 331.670391 88.919698 
L 332.216352 89.517695 
L 332.762583 90.354985 
L 333.308815 90.463983 
L 333.854505 89.722993 
L 334.400195 89.383315 
L 334.945615 88.490385 
L 335.490764 88.074987 
L 336.036454 87.440814 
L 336.581873 89.008434 
L 337.127564 88.747483 
L 337.673254 89.579932 
L 338.220297 89.907034 
L 338.766528 89.811656 
L 339.312218 90.514601 
L 339.857367 90.915954 
L 340.402516 90.284952 
L 340.949289 90.751164 
L 341.495249 89.383635 
L 342.04094 89.129582 
L 342.587712 89.117831 
L 343.134214 89.385243 
L 343.679904 88.397807 
L 344.226135 88.239135 
L 344.772908 88.630487 
L 345.865911 86.059296 
L 346.960809 85.000791 
L 347.505958 85.503382 
L 348.053812 84.894955 
L 348.600044 84.580137 
L 349.147087 85.160825 
L 350.238737 84.704994 
L 350.78578 85.083093 
L 351.330929 84.049785 
L 351.87662 83.808876 
L 352.423392 82.442476 
L 352.970705 81.520514 
L 353.516125 81.715713 
L 354.061004 81.263465 
L 354.606694 81.412322 
L 355.153196 80.94159 
L 355.698886 82.67861 
L 356.244576 81.804566 
L 356.791348 82.246251 
L 357.33785 82.251056 
L 357.88354 81.827368 
L 360.068195 81.68675 
L 360.615238 81.183037 
L 361.706348 81.772325 
L 363.891002 85.299537 
L 364.437233 85.660789 
L 364.981841 85.17468 
L 365.528614 85.243179 
L 366.074033 85.725165 
L 366.620265 85.459143 
L 367.166225 84.719549 
L 368.27952 84.850139 
L 368.825481 86.289513 
L 369.371441 85.791987 
L 369.916861 86.298356 
L 370.464445 85.376122 
L 371.011217 84.738354 
L 371.557449 84.319723 
L 372.104762 84.891495 
L 372.650452 84.614227 
L 373.196413 84.552643 
L 373.742374 83.783327 
L 374.288335 83.400372 
L 374.834295 83.402525 
L 375.380527 84.174057 
L 375.926217 82.938538 
L 376.472448 82.926856 
L 377.018138 83.271725 
L 377.565181 83.177774 
L 378.11033 82.397268 
L 378.656291 81.852875 
L 379.201981 81.924671 
L 380.293903 80.570652 
L 380.839593 80.971295 
L 381.385824 80.963244 
L 381.933137 80.245079 
L 382.478557 80.507184 
L 383.023436 80.390394 
L 383.570208 81.06688 
L 384.115628 80.690509 
L 384.661047 79.35917 
L 385.206196 79.730667 
L 385.752157 78.922903 
L 386.298118 79.661322 
L 386.844079 79.039871 
L 387.392204 79.022058 
L 387.938435 79.526913 
L 388.484125 79.009329 
L 389.030356 79.692371 
L 389.577399 79.547473 
L 390.122819 78.244166 
L 390.122819 78.244166 
" clip-path="url(#p28d34bcac5)" style="fill: none; stroke: #2ca02c; stroke-width: 1.5; stroke-linecap: square"/>
   </g>
   <g id="LineCollection_3">
    <path d="M 121.393265 295.488 
L 121.393265 182.165927 
" clip-path="url(#p28d34bcac5)" style="fill: none; stroke-dasharray: 1.5,7.5; stroke-dashoffset: 0; stroke: #2ca02c; stroke-width: 1.5"/>
   </g>
   <g id="line2d_18">
    <path d="M 73.832727 295.488 
L 77.677449 295.266403 
L 82.589743 295.198544 
L 84.773585 294.914503 
L 86.41282 294.531524 
L 88.053137 293.957684 
L 89.695619 293.128079 
L 90.789434 292.225653 
L 91.88352 291.08314 
L 92.977335 289.476986 
L 94.072233 287.350734 
L 95.164154 284.486325 
L 95.71255 282.786587 
L 96.806906 278.308472 
L 98.992643 265.619906 
L 100.632148 254.629452 
L 102.270842 243.996322 
L 103.912512 233.86096 
L 105.005516 228.056529 
L 107.194228 218.174278 
L 108.833463 211.861457 
L 109.379695 210.405758 
L 109.927008 208.198104 
L 110.474863 207.403213 
L 111.034892 205.795229 
L 111.583287 204.580842 
L 113.773623 198.4281 
L 115.413399 194.536768 
L 115.961254 193.869228 
L 116.507485 192.446473 
L 117.053987 191.623941 
L 117.600759 190.520091 
L 118.14672 189.953597 
L 119.241347 187.49858 
L 120.884369 182.71976 
L 121.977914 179.941701 
L 122.525498 177.877572 
L 123.619313 175.692837 
L 124.711505 172.491671 
L 125.259089 171.178505 
L 125.805321 169.003285 
L 126.352905 167.972964 
L 126.901571 168.399602 
L 127.448343 165.247217 
L 128.540806 162.351534 
L 129.086767 161.867134 
L 129.633268 160.767508 
L 130.180311 159.188133 
L 130.726813 158.266873 
L 131.273856 156.530627 
L 131.821169 155.460309 
L 132.36713 153.795042 
L 133.459863 151.693411 
L 134.007177 149.302504 
L 134.552596 148.466683 
L 135.100721 147.366286 
L 135.648847 147.499851 
L 136.195078 147.829891 
L 136.742121 147.234027 
L 137.288893 146.255873 
L 137.836207 144.578558 
L 138.959782 142.683801 
L 140.05522 141.49545 
L 140.603075 139.03864 
L 141.149577 139.248039 
L 141.694996 139.637814 
L 142.788 139.304661 
L 143.33369 139.583206 
L 143.881274 139.197116 
L 144.429129 138.282633 
L 144.977254 137.962453 
L 145.523215 137.900775 
L 146.071069 137.432188 
L 146.617841 137.264224 
L 147.164614 137.431435 
L 147.711116 136.564831 
L 148.2587 136.451561 
L 148.806013 135.963422 
L 149.352244 134.920835 
L 149.898746 133.285539 
L 150.445519 133.54959 
L 151.539604 131.610931 
L 152.086918 130.099321 
L 152.633149 130.076131 
L 153.180463 130.35411 
L 153.728588 130.20753 
L 154.274007 130.796463 
L 155.366199 130.218261 
L 155.913513 129.347546 
L 156.460556 129.377647 
L 157.00841 127.738542 
L 157.555724 127.086161 
L 158.102225 127.749148 
L 158.648727 125.748454 
L 159.194959 125.737913 
L 160.287692 124.839648 
L 160.834735 123.694369 
L 161.381236 122.21064 
L 161.927738 122.92878 
L 163.022365 123.271051 
L 163.571031 122.75845 
L 164.117533 123.889858 
L 164.664305 124.297091 
L 165.756497 123.356705 
L 166.302999 122.861654 
L 166.849772 123.350814 
L 167.396815 123.161944 
L 167.943587 123.697681 
L 169.038484 122.929365 
L 169.584175 123.278081 
L 170.130947 123.842242 
L 170.678531 122.847142 
L 171.225033 122.353105 
L 171.775593 121.183657 
L 172.323177 121.032655 
L 172.87049 120.667538 
L 173.416451 120.528437 
L 173.963223 119.826436 
L 175.055415 119.35986 
L 175.601647 120.557288 
L 176.148148 120.425785 
L 176.695732 120.680651 
L 177.241964 120.198846 
L 177.788736 120.773816 
L 178.33632 119.432431 
L 178.883363 118.70153 
L 179.975825 118.032111 
L 180.522868 117.123455 
L 181.068829 116.642981 
L 181.615601 117.313116 
L 182.162644 117.17736 
L 182.709958 117.325888 
L 183.25673 115.885843 
L 183.802961 115.914234 
L 184.348922 114.346203 
L 184.896506 113.170436 
L 185.44382 112.376681 
L 185.98951 112.226488 
L 186.536012 113.02619 
L 187.081972 113.072217 
L 187.628204 111.829194 
L 188.720396 112.184672 
L 189.266627 111.780761 
L 189.812858 110.299562 
L 190.358819 109.45892 
L 190.906944 109.445889 
L 191.453175 109.57725 
L 192.000218 108.969688 
L 192.547802 107.923428 
L 193.094304 107.916599 
L 193.639724 106.968225 
L 194.187308 105.678971 
L 194.732998 105.936026 
L 195.27977 105.377985 
L 195.840611 105.470466 
L 196.386842 105.35544 
L 197.478764 105.517164 
L 198.024995 105.245102 
L 198.571767 105.933244 
L 199.118269 104.626128 
L 199.666124 106.175957 
L 200.214519 105.483802 
L 200.762103 104.993743 
L 201.309146 105.020697 
L 201.855648 105.733246 
L 202.402961 105.80576 
L 203.496506 108.688044 
L 204.043549 109.541339 
L 204.590592 109.907998 
L 205.137364 109.55338 
L 206.229015 109.800063 
L 206.775517 109.168446 
L 207.322019 109.379721 
L 207.869603 108.097686 
L 208.418269 107.99365 
L 208.966124 107.608883 
L 209.512625 106.326764 
L 210.059939 104.259561 
L 210.606711 104.486895 
L 211.153484 103.223765 
L 211.700256 102.432056 
L 212.245676 102.210991 
L 212.792989 102.571623 
L 213.340573 102.640993 
L 213.887075 102.358116 
L 214.433036 102.430515 
L 215.525769 101.174738 
L 216.072 100.922034 
L 216.61769 101.50268 
L 217.166356 100.835593 
L 217.713399 101.553951 
L 218.260172 100.061519 
L 218.806944 99.382565 
L 219.354799 99.150372 
L 219.902383 98.682218 
L 220.448614 97.671963 
L 220.995116 98.059312 
L 221.541617 97.583148 
L 222.087308 97.78514 
L 222.63408 98.588447 
L 223.180852 97.349531 
L 223.728707 97.111352 
L 224.27602 95.636566 
L 225.368483 96.317304 
L 225.915255 96.19019 
L 226.461216 96.274252 
L 227.006906 96.238038 
L 227.553949 95.995938 
L 228.099639 96.749655 
L 228.644788 96.884554 
L 229.19129 96.736495 
L 229.737521 97.028354 
L 230.285917 96.970201 
L 231.380544 96.289391 
L 231.926775 97.199921 
L 232.473818 97.430452 
L 233.021673 95.509644 
L 233.569257 96.533435 
L 234.115759 96.105689 
L 234.663884 95.459583 
L 235.210656 94.30017 
L 235.757158 93.536133 
L 236.303389 94.561946 
L 236.851244 94.257606 
L 237.397475 92.561399 
L 238.49129 91.548299 
L 239.038874 91.085117 
L 239.585105 90.044697 
L 240.132148 89.54099 
L 240.67838 89.437128 
L 242.320591 88.696322 
L 242.866822 88.209819 
L 243.413053 87.481767 
L 243.959825 87.038926 
L 244.506868 86.917609 
L 245.053641 87.810605 
L 245.600413 89.06547 
L 246.147185 89.01193 
L 246.694228 88.44905 
L 247.241271 89.513302 
L 247.788855 88.985143 
L 248.33671 89.856168 
L 249.43296 88.849691 
L 249.979732 89.95619 
L 250.525693 89.451915 
L 251.071924 89.85462 
L 251.620591 89.070196 
L 252.167363 88.786439 
L 252.715488 88.756516 
L 253.26199 90.277474 
L 253.808762 89.18777 
L 254.900143 91.001138 
L 255.992876 89.786934 
L 256.538836 88.634258 
L 257.632381 88.39158 
L 258.178342 88.314602 
L 258.724844 88.095489 
L 259.271616 88.656008 
L 259.819741 88.625403 
L 260.366243 88.414028 
L 260.913556 87.911557 
L 261.460058 87.109645 
L 262.00656 85.747943 
L 262.55225 84.846712 
L 263.098481 84.208621 
L 263.646877 83.358402 
L 264.192838 82.730803 
L 264.73961 82.278315 
L 265.285841 82.064348 
L 265.832614 81.653703 
L 266.378845 81.454699 
L 266.925347 80.981875 
L 267.473472 81.63182 
L 268.020785 81.604059 
L 268.568369 81.771855 
L 269.115142 82.245812 
L 269.661914 81.817361 
L 270.209769 82.143332 
L 270.756271 81.948132 
L 271.303313 81.390407 
L 271.850086 81.520115 
L 272.398752 81.476508 
L 274.039069 82.198091 
L 274.586383 82.027147 
L 275.132343 82.223382 
L 276.224265 82.146976 
L 277.317268 83.47736 
L 277.864311 83.31031 
L 278.410543 83.728161 
L 278.956774 83.08284 
L 279.503817 82.789246 
L 280.597632 81.692143 
L 281.145487 82.232429 
L 282.237679 80.583751 
L 283.330953 79.151893 
L 283.877725 78.980772 
L 284.424768 78.409824 
L 284.972081 77.645579 
L 285.519124 76.586799 
L 286.065085 76.501935 
L 287.158359 76.737926 
L 287.705132 77.475442 
L 288.251092 77.393325 
L 288.797594 77.590757 
L 289.344908 77.527382 
L 289.891139 78.169866 
L 290.437641 78.306424 
L 291.530374 77.162095 
L 292.076876 77.00158 
L 293.17042 76.416628 
L 293.717734 76.672145 
L 295.356969 75.169883 
L 295.904012 76.061906 
L 296.470263 75.613725 
L 297.017306 76.210728 
L 297.566243 75.179284 
L 298.112745 74.553196 
L 298.658976 74.216538 
L 299.205207 74.480547 
L 299.750356 74.874936 
L 300.299564 75.075145 
L 300.845524 75.603741 
L 301.392567 75.380095 
L 301.937987 74.659667 
L 302.484218 74.812741 
L 303.577763 76.948308 
L 304.125076 76.68119 
L 304.671849 76.104414 
L 305.218892 76.352365 
L 305.765393 76.329837 
L 306.31406 75.862951 
L 307.407604 76.710983 
L 307.954106 76.598793 
L 308.500608 77.242599 
L 309.594964 76.974803 
L 310.142007 76.614708 
L 311.236364 76.842504 
L 313.424535 75.246063 
L 313.970767 75.197202 
L 314.517539 74.964623 
L 316.704628 75.698653 
L 317.797903 73.368075 
L 318.344404 73.948865 
L 319.984451 72.762352 
L 320.530953 72.19098 
L 321.077725 71.097706 
L 321.62558 71.117557 
L 322.172893 71.256993 
L 322.719395 72.18453 
L 323.265897 72.681319 
L 323.812669 73.824428 
L 324.3589 73.497094 
L 325.453527 73.167416 
L 326.000841 73.421134 
L 326.546801 72.247977 
L 327.093574 70.537834 
L 327.639805 71.767373 
L 328.186036 70.597549 
L 328.731185 70.345857 
L 329.277958 70.232356 
L 329.82473 71.125724 
L 330.370691 71.666747 
L 330.918275 72.476869 
L 331.463965 71.165778 
L 332.011279 70.99743 
L 332.558592 71.815953 
L 333.105094 71.872497 
L 333.652678 71.198283 
L 334.199991 69.915411 
L 334.747305 69.854705 
L 335.294348 70.751736 
L 335.84112 70.724237 
L 336.935476 71.7723 
L 337.481978 71.280921 
L 338.029562 71.562838 
L 338.576335 71.044357 
L 339.123919 69.750481 
L 339.67015 69.802449 
L 340.219087 68.503303 
L 340.764506 67.943828 
L 341.311008 68.008829 
L 341.858051 67.334567 
L 342.404553 66.350882 
L 342.951055 65.977241 
L 344.04514 64.549304 
L 344.591913 64.767749 
L 345.137873 65.147435 
L 345.683564 65.079648 
L 346.231148 64.698216 
L 346.777649 65.199866 
L 347.871194 64.895471 
L 348.417155 64.553783 
L 348.964198 64.68835 
L 349.5107 64.937587 
L 350.056931 65.569241 
L 350.628864 65.735817 
L 351.176177 66.21247 
L 351.722409 66.280054 
L 352.268911 66.144811 
L 352.814871 66.267773 
L 353.362996 65.597423 
L 353.908416 65.478712 
L 354.455188 64.862136 
L 355.001149 64.95063 
L 355.548463 64.478607 
L 356.641737 64.988137 
L 357.187697 66.145647 
L 357.735823 65.40616 
L 358.282595 65.584121 
L 358.828285 66.617766 
L 359.374516 67.256646 
L 359.921018 66.001244 
L 360.468061 65.359103 
L 361.014833 65.636832 
L 362.108919 65.495084 
L 362.655692 64.99287 
L 363.202464 64.980048 
L 363.748695 64.338436 
L 364.295738 64.175185 
L 364.842781 64.339644 
L 365.389283 63.605421 
L 365.935244 64.187708 
L 366.483369 64.244278 
L 367.031764 63.970798 
L 367.576643 62.861389 
L 369.764003 61.0211 
L 370.859441 60.651928 
L 371.405402 59.938056 
L 371.953527 59.980771 
L 372.499488 60.417274 
L 373.591951 60.725768 
L 374.140887 60.614656 
L 374.68766 60.078338 
L 375.232809 59.33521 
L 375.781745 59.704753 
L 376.327436 59.746575 
L 377.42098 59.545994 
L 377.966671 59.966198 
L 378.513443 59.753125 
L 379.060756 60.135879 
L 380.152948 59.938173 
L 380.699721 59.353355 
L 381.246223 58.285485 
L 381.792995 57.762058 
L 382.340579 58.06154 
L 382.887351 57.859092 
L 383.433583 57.492965 
L 383.980896 57.922196 
L 384.526857 56.618953 
L 385.073629 56.962809 
L 386.167985 58.178052 
L 386.714758 58.813928 
L 387.260448 58.865647 
L 387.807491 58.502836 
L 388.354263 57.80833 
L 388.900224 57.800413 
L 390.540541 58.405988 
L 390.540541 58.405988 
" clip-path="url(#p28d34bcac5)" style="fill: none; stroke: #ff7f0e; stroke-width: 1.5; stroke-linecap: square"/>
   </g>
   <g id="LineCollection_4">
    <path d="M 121.43006 295.488 
L 121.43006 182.165927 
" clip-path="url(#p28d34bcac5)" style="fill: none; stroke-dasharray: 1.5,7.5; stroke-dashoffset: 0; stroke: #ff7f0e; stroke-width: 1.5"/>
   </g>
   <g id="line2d_19">
    <path d="M 73.832727 295.488 
L 84.868006 295.002565 
L 87.057801 294.47969 
L 88.702447 293.857963 
L 89.801402 293.239988 
L 90.349527 292.824573 
L 91.447942 291.674345 
L 92.560154 289.985688 
L 93.107468 289.026092 
L 94.201553 286.588173 
L 95.299697 283.108213 
L 95.849446 280.697866 
L 96.947319 274.600341 
L 101.331779 242.829186 
L 102.441015 235.682337 
L 103.538348 228.466496 
L 104.634327 222.473346 
L 106.279244 214.444803 
L 108.471744 205.923694 
L 110.114225 200.860374 
L 113.407034 191.967525 
L 113.953807 190.849367 
L 115.598182 186.26114 
L 116.146036 184.230351 
L 118.338807 177.940048 
L 118.886662 177.401712 
L 119.435057 174.51791 
L 119.983183 173.297464 
L 120.530496 170.737364 
L 121.079433 169.642723 
L 122.173789 166.477319 
L 122.721914 165.301416 
L 123.270851 161.455624 
L 123.818164 159.036987 
L 124.366019 157.172306 
L 124.913873 155.999855 
L 125.461187 152.799753 
L 126.009312 151.645327 
L 126.558249 149.898115 
L 127.106374 147.342827 
L 127.655852 146.694267 
L 128.753996 142.835465 
L 129.847811 138.024946 
L 130.395395 137.280985 
L 132.038147 129.859248 
L 132.586272 128.830298 
L 133.135479 126.281182 
L 133.684687 125.99875 
L 134.232541 124.652423 
L 134.780666 123.83682 
L 135.327439 121.963858 
L 136.4245 119.327713 
L 136.974519 117.959236 
L 137.522644 118.227742 
L 138.07104 116.364465 
L 138.618895 113.564964 
L 139.168372 113.064524 
L 139.715145 112.855909 
L 140.811395 111.445502 
L 141.361414 110.763785 
L 141.908998 110.925921 
L 142.456852 109.546754 
L 143.007953 110.129231 
L 143.554726 109.820595 
L 144.101228 109.770677 
L 144.649082 110.60344 
L 145.197478 111.092262 
L 145.746956 110.312273 
L 146.296975 111.514614 
L 146.844017 110.998014 
L 147.391872 112.371199 
L 148.48704 112.014726 
L 149.033271 112.347783 
L 149.581396 112.463261 
L 150.675482 111.824073 
L 151.221984 112.235417 
L 151.772544 113.595039 
L 152.319857 114.153824 
L 152.867983 115.553958 
L 153.415567 115.926464 
L 153.964774 115.170199 
L 154.513169 114.98442 
L 155.059942 114.416987 
L 155.608879 115.628203 
L 156.157274 115.633243 
L 156.70567 115.389008 
L 157.253524 115.533743 
L 157.801108 116.005811 
L 158.34761 115.670194 
L 158.896276 114.395288 
L 159.444131 113.571342 
L 159.992527 115.017381 
L 160.540652 115.089626 
L 161.63609 112.777825 
L 162.185027 112.48772 
L 162.734775 112.507295 
L 163.283171 110.666359 
L 163.831567 110.442956 
L 164.378609 109.544803 
L 164.926735 108.89599 
L 165.474319 106.953859 
L 166.570028 104.245354 
L 167.118694 102.328469 
L 167.665737 100.935735 
L 168.214403 99.100001 
L 168.761987 97.83998 
L 169.308759 97.712003 
L 169.856884 96.488254 
L 170.404739 95.657041 
L 170.952323 95.342759 
L 171.499366 94.222091 
L 172.048032 95.164794 
L 172.596428 96.443297 
L 173.145635 96.966293 
L 173.692948 96.794729 
L 174.242967 96.43121 
L 174.790822 96.260244 
L 175.338135 96.950296 
L 175.885178 96.912794 
L 176.43168 95.899372 
L 176.979264 95.219193 
L 178.077408 95.456861 
L 178.62418 95.853208 
L 179.172035 95.563237 
L 180.268015 94.438384 
L 180.815599 94.089337 
L 181.363724 94.398289 
L 181.911308 93.558648 
L 182.459162 94.121675 
L 183.006746 93.992264 
L 183.555683 94.996009 
L 184.104079 94.870572 
L 184.652745 95.304747 
L 185.200058 95.449261 
L 185.747642 96.68668 
L 186.295767 96.403317 
L 186.845516 96.60823 
L 187.940954 97.652827 
L 188.489079 96.611181 
L 189.035311 96.594845 
L 189.583977 94.57977 
L 190.132372 93.111702 
L 190.679686 93.040928 
L 191.228623 93.643962 
L 191.777018 94.04287 
L 192.324602 93.395843 
L 192.871916 91.981492 
L 193.420041 91.406862 
L 193.968707 89.947794 
L 194.517373 90.790675 
L 195.066039 90.145375 
L 195.613082 88.810579 
L 196.725024 86.984607 
L 197.819651 86.542574 
L 198.368047 85.186904 
L 198.915901 85.477218 
L 199.462673 85.541194 
L 200.010257 84.617353 
L 200.55703 85.247252 
L 201.104884 84.337362 
L 201.652739 84.005118 
L 202.200864 83.300656 
L 202.748719 84.03341 
L 203.296573 84.027257 
L 203.844428 83.776276 
L 204.392553 83.088913 
L 204.940407 82.892175 
L 205.488803 83.440092 
L 206.03774 83.077686 
L 206.585053 83.205189 
L 207.133178 82.787347 
L 207.680762 82.956776 
L 208.777824 82.281718 
L 209.874074 82.921119 
L 210.421117 82.384627 
L 210.969513 82.172001 
L 212.063869 80.841312 
L 212.610912 80.843076 
L 213.158225 81.065461 
L 214.801519 79.611043 
L 215.348832 79.659726 
L 216.445894 78.388803 
L 216.995372 78.338307 
L 217.543767 78.524207 
L 218.6365 77.345901 
L 219.734644 77.457622 
L 220.281687 77.95736 
L 220.829271 77.379542 
L 221.948518 77.154902 
L 222.497455 77.320782 
L 223.044497 76.670255 
L 223.592081 75.806131 
L 224.140207 76.170208 
L 224.687249 76.201903 
L 225.236727 75.756033 
L 226.332707 75.5543 
L 226.88002 74.853127 
L 227.428957 74.802401 
L 227.977082 74.630042 
L 228.525478 74.639682 
L 229.075497 74.401422 
L 229.624433 73.299631 
L 230.1731 73.200723 
L 230.720954 72.797815 
L 231.269891 73.441228 
L 231.817475 72.959468 
L 232.3656 73.189491 
L 232.912102 73.26043 
L 233.459145 72.499758 
L 234.006188 72.200559 
L 234.554042 71.556757 
L 235.650022 70.85433 
L 236.197606 69.895387 
L 236.746001 70.087842 
L 237.294397 71.088026 
L 237.841981 71.291981 
L 238.390106 70.884154 
L 238.940937 71.234071 
L 239.48825 72.213984 
L 240.035023 71.898091 
L 240.582336 73.616154 
L 241.131002 73.994848 
L 241.679398 73.45004 
L 242.775107 73.717493 
L 243.324585 73.512806 
L 244.419482 72.683613 
L 244.966255 71.714621 
L 245.513839 71.012945 
L 246.062234 70.718767 
L 246.609818 69.357666 
L 247.157943 69.195059 
L 247.705527 69.225679 
L 248.254464 69.130677 
L 248.801777 69.598685 
L 249.348279 69.508692 
L 249.898298 69.543848 
L 250.445882 68.872712 
L 251.014839 68.62235 
L 251.561882 68.258714 
L 252.108655 68.261446 
L 253.203281 67.698649 
L 254.300073 67.840684 
L 255.397135 66.677368 
L 255.944719 66.633611 
L 257.040698 66.075847 
L 257.589094 66.228725 
L 259.230493 64.354472 
L 259.779159 64.45401 
L 260.326473 64.28341 
L 260.874327 63.644961 
L 261.423535 64.278869 
L 261.971389 64.405364 
L 262.518161 64.041364 
L 263.065204 64.116107 
L 263.613329 63.821742 
L 264.160913 63.340991 
L 264.707956 63.507792 
L 265.254999 63.83271 
L 266.898022 65.207358 
L 268.541585 64.608722 
L 269.087817 63.791472 
L 269.634319 64.070495 
L 270.182173 63.879718 
L 270.730298 64.05266 
L 271.278694 64.551519 
L 273.470924 63.661712 
L 274.563927 62.565999 
L 275.110429 62.47897 
L 275.657472 62.801511 
L 276.206138 62.158624 
L 276.754534 62.534797 
L 277.3032 62.405388 
L 277.851055 62.704822 
L 278.945411 62.169265 
L 279.492995 62.0886 
L 280.04112 62.151707 
L 280.590057 61.827482 
L 281.140076 61.738545 
L 281.688471 61.181458 
L 282.236596 61.18324 
L 282.784451 61.6732 
L 283.332305 61.34234 
L 284.426662 61.101918 
L 284.973705 60.94735 
L 285.522371 61.267321 
L 286.616998 60.883366 
L 287.713519 60.234398 
L 288.260561 60.428893 
L 288.808416 60.165044 
L 289.355188 60.669161 
L 289.903043 60.229824 
L 290.451168 60.340535 
L 290.998211 60.657881 
L 291.546065 60.339972 
L 292.643127 60.545815 
L 293.742895 59.983355 
L 294.289937 60.654595 
L 295.385647 59.959678 
L 295.93296 60.175555 
L 296.480815 60.241386 
L 297.029481 60.195306 
L 297.577606 59.769115 
L 298.12546 59.066597 
L 299.770106 58.15503 
L 300.316879 58.461203 
L 301.963148 59.72943 
L 302.511543 60.01383 
L 303.059398 59.945588 
L 303.606982 59.682745 
L 304.154836 59.260506 
L 305.797588 58.602676 
L 306.345443 58.518882 
L 306.893839 58.828571 
L 307.442775 58.71062 
L 307.990359 59.141251 
L 308.538755 59.053574 
L 309.085257 59.418421 
L 309.633923 59.649549 
L 310.180154 60.085021 
L 310.745594 60.093654 
L 312.40999 58.93353 
L 312.957303 58.772317 
L 313.505158 59.135125 
L 314.052742 59.327247 
L 314.598973 59.098663 
L 315.146557 58.553998 
L 315.695494 58.394026 
L 318.437201 56.932209 
L 318.985327 56.952612 
L 319.532369 57.205969 
L 320.081036 56.793379 
L 320.628349 57.115506 
L 321.176204 56.665129 
L 321.724329 56.738774 
L 322.271372 56.520007 
L 322.819226 56.453798 
L 323.367351 57.01834 
L 323.913583 56.924753 
L 324.462519 57.161355 
L 325.010915 57.52942 
L 325.55904 57.256832 
L 326.106624 57.364709 
L 326.653396 57.150922 
L 327.201251 57.240605 
L 327.746941 57.177983 
L 328.295337 56.99548 
L 328.843191 56.656775 
L 329.93863 57.386364 
L 330.488649 57.191885 
L 331.038127 57.271379 
L 331.585711 56.931316 
L 332.133565 56.78721 
L 333.229815 56.883947 
L 333.77794 56.759037 
L 334.325524 56.755892 
L 334.873649 57.018893 
L 335.423127 56.999571 
L 335.971793 56.748321 
L 336.52073 56.807039 
L 337.068585 56.641828 
L 338.163482 56.659811 
L 338.711066 56.426924 
L 339.807316 56.682614 
L 340.357335 56.488899 
L 340.90546 55.774703 
L 341.452774 55.943787 
L 342.000899 55.937979 
L 342.547942 55.252671 
L 343.096608 55.179915 
L 343.645004 55.4641 
L 344.193399 55.119577 
L 344.741795 54.946969 
L 345.290461 55.12389 
L 345.837504 55.174058 
L 346.38617 54.999902 
L 346.934566 54.686246 
L 348.577859 55.138442 
L 350.222234 55.126045 
L 350.769277 54.728243 
L 351.316591 54.502237 
L 351.864986 54.39906 
L 352.413652 54.108214 
L 352.959884 54.034175 
L 353.507197 53.568 
L 355.699968 54.163624 
L 356.247552 54.141191 
L 356.796218 53.989437 
L 357.891657 54.960562 
L 358.441135 54.662637 
L 358.98926 54.524326 
L 361.178243 54.437099 
L 361.724745 54.229573 
L 362.271788 53.729538 
L 362.819913 53.945621 
L 363.915892 53.755711 
L 364.463476 53.842557 
L 365.010519 54.331319 
L 365.558915 54.282157 
L 366.107581 54.370418 
L 367.201396 54.202817 
L 367.753309 54.556675 
L 368.848748 54.545032 
L 369.39552 54.661934 
L 369.944457 55.383941 
L 370.493664 55.221091 
L 372.135334 55.485743 
L 373.232396 55.579528 
L 373.77998 55.75262 
L 374.328646 55.748696 
L 375.42706 56.225545 
L 376.522499 55.965116 
L 377.069271 56.075034 
L 377.617667 55.679906 
L 378.713105 55.652516 
L 379.807732 55.224495 
L 380.356669 55.167302 
L 381.99888 55.736605 
L 382.547276 55.576557 
L 383.09486 56.192782 
L 383.641091 56.515771 
L 384.735447 56.238529 
L 385.28249 55.406393 
L 385.830615 54.842857 
L 386.377929 54.524623 
L 386.92416 54.676761 
L 387.471744 54.45518 
L 388.020681 54.795202 
L 389.117743 54.558696 
L 389.664244 54.874037 
L 390.760224 54.836224 
L 390.760224 54.836224 
" clip-path="url(#p28d34bcac5)" style="fill: none; stroke: #1f77b4; stroke-width: 1.5; stroke-linecap: square"/>
   </g>
   <g id="LineCollection_5">
    <path d="M 117.239852 295.488 
L 117.239852 182.165927 
" clip-path="url(#p28d34bcac5)" style="fill: none; stroke-dasharray: 1.5,7.5; stroke-dashoffset: 0; stroke: #1f77b4; stroke-width: 1.5"/>
   </g>
   <g id="LineCollection_6">
    <path d="M 73.832727 182.165927 
L 398.487273 182.165927 
" clip-path="url(#p28d34bcac5)" style="fill: none; stroke-dasharray: 1.5,2.475; stroke-dashoffset: 0; stroke: #000000; stroke-width: 1.5"/>
   </g>
   <g id="patch_3">
    <path d="M 57.6 307.584 
L 57.6 41.472 
" style="fill: none; stroke: #000000; stroke-width: 0.8; stroke-linejoin: miter; stroke-linecap: square"/>
   </g>
   <g id="patch_4">
    <path d="M 414.72 307.584 
L 414.72 41.472 
" style="fill: none; stroke: #000000; stroke-width: 0.8; stroke-linejoin: miter; stroke-linecap: square"/>
   </g>
   <g id="patch_5">
    <path d="M 57.6 307.584 
L 414.72 307.584 
" style="fill: none; stroke: #000000; stroke-width: 0.8; stroke-linejoin: miter; stroke-linecap: square"/>
   </g>
   <g id="patch_6">
    <path d="M 57.6 41.472 
L 414.72 41.472 
" style="fill: none; stroke: #000000; stroke-width: 0.8; stroke-linejoin: miter; stroke-linecap: square"/>
   </g>
   <g id="text_17">
    <!-- Atari Breakout Training Curves -->
    <g transform="translate(144.879375 35.472) scale(0.12 -0.12)">
     <defs>
      <path id="DejaVuSans-41" d="M 2188 4044 
L 1331 1722 
L 3047 1722 
L 2188 4044 
z
M 1831 4666 
L 2547 4666 
L 4325 0 
L 3669 0 
L 3244 1197 
L 1141 1197 
L 716 0 
L 50 0 
L 1831 4666 
z
" transform="scale(0.015625)"/>
      <path id="DejaVuSans-42" d="M 1259 2228 
L 1259 519 
L 2272 519 
Q 2781 519 3026 730 
Q 3272 941 3272 1375 
Q 3272 1813 3026 2020 
Q 2781 2228 2272 2228 
L 1259 2228 
z
M 1259 4147 
L 1259 2741 
L 2194 2741 
Q 2656 2741 2882 2914 
Q 3109 3088 3109 3444 
Q 3109 3797 2882 3972 
Q 2656 4147 2194 4147 
L 1259 4147 
z
M 628 4666 
L 2241 4666 
Q 2963 4666 3353 4366 
Q 3744 4066 3744 3513 
Q 3744 3084 3544 2831 
Q 3344 2578 2956 2516 
Q 3422 2416 3680 2098 
Q 3938 1781 3938 1306 
Q 3938 681 3513 340 
Q 3088 0 2303 0 
L 628 0 
L 628 4666 
z
" transform="scale(0.015625)"/>
      <path id="DejaVuSans-6b" d="M 581 4863 
L 1159 4863 
L 1159 1991 
L 2875 3500 
L 3609 3500 
L 1753 1863 
L 3688 0 
L 2938 0 
L 1159 1709 
L 1159 0 
L 581 0 
L 581 4863 
z
" transform="scale(0.015625)"/>
      <path id="DejaVuSans-43" d="M 4122 4306 
L 4122 3641 
Q 3803 3938 3442 4084 
Q 3081 4231 2675 4231 
Q 1875 4231 1450 3742 
Q 1025 3253 1025 2328 
Q 1025 1406 1450 917 
Q 1875 428 2675 428 
Q 3081 428 3442 575 
Q 3803 722 4122 1019 
L 4122 359 
Q 3791 134 3420 21 
Q 3050 -91 2638 -91 
Q 1578 -91 968 557 
Q 359 1206 359 2328 
Q 359 3453 968 4101 
Q 1578 4750 2638 4750 
Q 3056 4750 3426 4639 
Q 3797 4528 4122 4306 
z
" transform="scale(0.015625)"/>
      <path id="DejaVuSans-76" d="M 191 3500 
L 800 3500 
L 1894 563 
L 2988 3500 
L 3597 3500 
L 2284 0 
L 1503 0 
L 191 3500 
z
" transform="scale(0.015625)"/>
     </defs>
     <use xlink:href="#DejaVuSans-41"/>
     <use xlink:href="#DejaVuSans-74" x="66.658203"/>
     <use xlink:href="#DejaVuSans-61" x="105.867188"/>
     <use xlink:href="#DejaVuSans-72" x="167.146484"/>
     <use xlink:href="#DejaVuSans-69" x="208.259766"/>
     <use xlink:href="#DejaVuSans-20" x="236.042969"/>
     <use xlink:href="#DejaVuSans-42" x="267.830078"/>
     <use xlink:href="#DejaVuSans-72" x="336.433594"/>
     <use xlink:href="#DejaVuSans-65" x="375.296875"/>
     <use xlink:href="#DejaVuSans-61" x="436.820312"/>
     <use xlink:href="#DejaVuSans-6b" x="498.099609"/>
     <use xlink:href="#DejaVuSans-6f" x="552.384766"/>
     <use xlink:href="#DejaVuSans-75" x="613.566406"/>
     <use xlink:href="#DejaVuSans-74" x="676.945312"/>
     <use xlink:href="#DejaVuSans-20" x="716.154297"/>
     <use xlink:href="#DejaVuSans-54" x="747.941406"/>
     <use xlink:href="#DejaVuSans-72" x="794.275391"/>
     <use xlink:href="#DejaVuSans-61" x="835.388672"/>
     <use xlink:href="#DejaVuSans-69" x="896.667969"/>
     <use xlink:href="#DejaVuSans-6e" x="924.451172"/>
     <use xlink:href="#DejaVuSans-69" x="987.830078"/>
     <use xlink:href="#DejaVuSans-6e" x="1015.613281"/>
     <use xlink:href="#DejaVuSans-67" x="1078.992188"/>
     <use xlink:href="#DejaVuSans-20" x="1142.46875"/>
     <use xlink:href="#DejaVuSans-43" x="1174.255859"/>
     <use xlink:href="#DejaVuSans-75" x="1244.080078"/>
     <use xlink:href="#DejaVuSans-72" x="1307.458984"/>
     <use xlink:href="#DejaVuSans-76" x="1348.572266"/>
     <use xlink:href="#DejaVuSans-65" x="1407.751953"/>
     <use xlink:href="#DejaVuSans-73" x="1469.275391"/>
    </g>
   </g>
   <g id="legend_1">
    <g id="patch_7">
     <path d="M 64.6 122.862625 
L 131.576562 122.862625 
Q 133.576562 122.862625 133.576562 120.862625 
L 133.576562 48.472 
Q 133.576562 46.472 131.576562 46.472 
L 64.6 46.472 
Q 62.6 46.472 62.6 48.472 
L 62.6 120.862625 
Q 62.6 122.862625 64.6 122.862625 
z
" style="fill: #ffffff; opacity: 0.8; stroke: #cccccc; stroke-linejoin: miter"/>
    </g>
    <g id="line2d_20">
     <path d="M 66.6 54.570438 
L 76.6 54.570438 
L 86.6 54.570438 
" style="fill: none; stroke: #8c564b; stroke-width: 1.5; stroke-linecap: square"/>
    </g>
    <g id="text_18">
     <!-- v4-8 -->
     <g transform="translate(94.6 58.070438) scale(0.1 -0.1)">
      <defs>
       <path id="DejaVuSans-2d" d="M 313 2009 
L 1997 2009 
L 1997 1497 
L 313 1497 
L 313 2009 
z
" transform="scale(0.015625)"/>
      </defs>
      <use xlink:href="#DejaVuSans-76"/>
      <use xlink:href="#DejaVuSans-34" x="59.179688"/>
      <use xlink:href="#DejaVuSans-2d" x="122.802734"/>
      <use xlink:href="#DejaVuSans-38" x="158.886719"/>
     </g>
    </g>
    <g id="line2d_21">
     <path d="M 66.6 69.248563 
L 76.6 69.248563 
L 86.6 69.248563 
" style="fill: none; stroke: #9467bd; stroke-width: 1.5; stroke-linecap: square"/>
    </g>
    <g id="text_19">
     <!-- v4-16 -->
     <g transform="translate(94.6 72.748563) scale(0.1 -0.1)">
      <use xlink:href="#DejaVuSans-76"/>
      <use xlink:href="#DejaVuSans-34" x="59.179688"/>
      <use xlink:href="#DejaVuSans-2d" x="122.802734"/>
      <use xlink:href="#DejaVuSans-31" x="158.886719"/>
      <use xlink:href="#DejaVuSans-36" x="222.509766"/>
     </g>
    </g>
    <g id="line2d_22">
     <path d="M 66.6 83.926688 
L 76.6 83.926688 
L 86.6 83.926688 
" style="fill: none; stroke: #2ca02c; stroke-width: 1.5; stroke-linecap: square"/>
    </g>
    <g id="text_20">
     <!-- v4-32 -->
     <g transform="translate(94.6 87.426688) scale(0.1 -0.1)">
      <defs>
       <path id="DejaVuSans-33" d="M 2597 2516 
Q 3050 2419 3304 2112 
Q 3559 1806 3559 1356 
Q 3559 666 3084 287 
Q 2609 -91 1734 -91 
Q 1441 -91 1130 -33 
Q 819 25 488 141 
L 488 750 
Q 750 597 1062 519 
Q 1375 441 1716 441 
Q 2309 441 2620 675 
Q 2931 909 2931 1356 
Q 2931 1769 2642 2001 
Q 2353 2234 1838 2234 
L 1294 2234 
L 1294 2753 
L 1863 2753 
Q 2328 2753 2575 2939 
Q 2822 3125 2822 3475 
Q 2822 3834 2567 4026 
Q 2313 4219 1838 4219 
Q 1578 4219 1281 4162 
Q 984 4106 628 3988 
L 628 4550 
Q 988 4650 1302 4700 
Q 1616 4750 1894 4750 
Q 2613 4750 3031 4423 
Q 3450 4097 3450 3541 
Q 3450 3153 3228 2886 
Q 3006 2619 2597 2516 
z
" transform="scale(0.015625)"/>
      </defs>
      <use xlink:href="#DejaVuSans-76"/>
      <use xlink:href="#DejaVuSans-34" x="59.179688"/>
      <use xlink:href="#DejaVuSans-2d" x="122.802734"/>
      <use xlink:href="#DejaVuSans-33" x="158.886719"/>
      <use xlink:href="#DejaVuSans-32" x="222.509766"/>
     </g>
    </g>
    <g id="line2d_23">
     <path d="M 66.6 98.604813 
L 76.6 98.604813 
L 86.6 98.604813 
" style="fill: none; stroke: #ff7f0e; stroke-width: 1.5; stroke-linecap: square"/>
    </g>
    <g id="text_21">
     <!-- v4-64 -->
     <g transform="translate(94.6 102.104813) scale(0.1 -0.1)">
      <use xlink:href="#DejaVuSans-76"/>
      <use xlink:href="#DejaVuSans-34" x="59.179688"/>
      <use xlink:href="#DejaVuSans-2d" x="122.802734"/>
      <use xlink:href="#DejaVuSans-36" x="158.886719"/>
      <use xlink:href="#DejaVuSans-34" x="222.509766"/>
     </g>
    </g>
    <g id="line2d_24">
     <path d="M 66.6 113.282938 
L 76.6 113.282938 
L 86.6 113.282938 
" style="fill: none; stroke: #1f77b4; stroke-width: 1.5; stroke-linecap: square"/>
    </g>
    <g id="text_22">
     <!-- v4-128 -->
     <g transform="translate(94.6 116.782938) scale(0.1 -0.1)">
      <use xlink:href="#DejaVuSans-76"/>
      <use xlink:href="#DejaVuSans-34" x="59.179688"/>
      <use xlink:href="#DejaVuSans-2d" x="122.802734"/>
      <use xlink:href="#DejaVuSans-31" x="158.886719"/>
      <use xlink:href="#DejaVuSans-32" x="222.509766"/>
      <use xlink:href="#DejaVuSans-38" x="286.132812"/>
     </g>
    </g>
   </g>
  </g>
 </g>
 <defs>
  <clipPath id="p28d34bcac5">
   <rect x="57.6" y="41.472" width="357.12" height="266.112"/>
  </clipPath>
 </defs>
</svg>
